ply
format ascii 1.0
comment Created by Blender 2.59 (sub 0) - www.blender.org, source file: ''
element vertex 60
property float x
property float y
property float z
property float nx
property float ny
property float nz
element face 18
property list uchar uint vertex_indices
end_header
0.866025 0.000000 -0.500000 0.480384 0.277350 -0.832050 
-0.000000 0.000000 -1.000000 0.480384 0.277350 -0.832050 
0.433013 0.750000 -0.500000 0.480384 0.277350 -0.832050 
0.866025 0.000000 0.500000 0.866025 0.500000 -0.000000 
0.866025 0.000000 -0.500000 0.866025 0.500000 -0.000000 
0.433013 0.750000 -0.500000 0.866025 0.500000 -0.000000 
0.433013 0.750000 0.500000 0.866025 0.500000 -0.000000 
0.000000 0.000000 1.000000 0.480384 0.277350 0.832050 
0.866025 0.000000 0.500000 0.480384 0.277350 0.832050 
0.433013 0.750000 0.500000 0.480384 0.277350 0.832050 
0.000000 0.000000 1.000000 -0.000000 0.554700 0.832050 
0.433013 0.750000 0.500000 -0.000000 0.554700 0.832050 
-0.433013 0.750000 0.500000 -0.000000 0.554700 0.832050 
0.433013 0.750000 0.500000 0.000000 1.000000 -0.000000 
0.433013 0.750000 -0.500000 0.000000 1.000000 -0.000000 
-0.433013 0.750000 -0.500000 0.000000 1.000000 -0.000000 
-0.433013 0.750000 0.500000 0.000000 1.000000 -0.000000 
0.433013 0.750000 -0.500000 0.000000 0.554700 -0.832050 
-0.000000 0.000000 -1.000000 0.000000 0.554700 -0.832050 
-0.433013 0.750000 -0.500000 0.000000 0.554700 -0.832050 
-0.433013 0.750000 -0.500000 -0.480385 0.277350 -0.832050 
-0.000000 0.000000 -1.000000 -0.480385 0.277350 -0.832050 
-0.866025 -0.000000 -0.500000 -0.480385 0.277350 -0.832050 
-0.433013 0.750000 0.500000 -0.866025 0.500000 -0.000000 
-0.433013 0.750000 -0.500000 -0.866025 0.500000 -0.000000 
-0.866025 -0.000000 -0.500000 -0.866025 0.500000 -0.000000 
-0.866026 -0.000000 0.500000 -0.866025 0.500000 -0.000000 
0.000000 0.000000 1.000000 -0.480384 0.277350 0.832050 
-0.433013 0.750000 0.500000 -0.480384 0.277350 0.832050 
-0.866026 -0.000000 0.500000 -0.480384 0.277350 0.832050 
0.000000 0.000000 1.000000 -0.480384 -0.277350 0.832050 
-0.866026 -0.000000 0.500000 -0.480384 -0.277350 0.832050 
-0.433013 -0.750000 0.500000 -0.480384 -0.277350 0.832050 
-0.866026 -0.000000 0.500000 -0.866025 -0.500000 -0.000000 
-0.866025 -0.000000 -0.500000 -0.866025 -0.500000 -0.000000 
-0.433013 -0.750000 -0.500000 -0.866025 -0.500000 -0.000000 
-0.433013 -0.750000 0.500000 -0.866025 -0.500000 -0.000000 
-0.866025 -0.000000 -0.500000 -0.480384 -0.277350 -0.832050 
-0.000000 0.000000 -1.000000 -0.480384 -0.277350 -0.832050 
-0.433013 -0.750000 -0.500000 -0.480384 -0.277350 -0.832050 
-0.433013 -0.750000 -0.500000 0.000000 -0.554700 -0.832050 
-0.000000 0.000000 -1.000000 0.000000 -0.554700 -0.832050 
0.433013 -0.750000 -0.500000 0.000000 -0.554700 -0.832050 
-0.433013 -0.750000 0.500000 0.000000 -1.000000 -0.000000 
-0.433013 -0.750000 -0.500000 0.000000 -1.000000 -0.000000 
0.433013 -0.750000 -0.500000 0.000000 -1.000000 -0.000000 
0.433013 -0.750000 0.500000 0.000000 -1.000000 -0.000000 
0.000000 0.000000 1.000000 0.000000 -0.554700 0.832050 
-0.433013 -0.750000 0.500000 0.000000 -0.554700 0.832050 
0.433013 -0.750000 0.500000 0.000000 -0.554700 0.832050 
0.000000 0.000000 1.000000 0.480384 -0.277350 0.832050 
0.433013 -0.750000 0.500000 0.480384 -0.277350 0.832050 
0.866025 0.000000 0.500000 0.480384 -0.277350 0.832050 
0.433013 -0.750000 0.500000 0.866026 -0.500000 -0.000000 
0.433013 -0.750000 -0.500000 0.866026 -0.500000 -0.000000 
0.866025 0.000000 -0.500000 0.866026 -0.500000 -0.000000 
0.866025 0.000000 0.500000 0.866026 -0.500000 -0.000000 
0.433013 -0.750000 -0.500000 0.480384 -0.277350 -0.832050 
-0.000000 0.000000 -1.000000 0.480384 -0.277350 -0.832050 
0.866025 0.000000 -0.500000 0.480384 -0.277350 -0.832050 
3 0 1 2
4 3 4 5 6
3 7 8 9
3 10 11 12
4 13 14 15 16
3 17 18 19
3 20 21 22
4 23 24 25 26
3 27 28 29
3 30 31 32
4 33 34 35 36
3 37 38 39
3 40 41 42
4 43 44 45 46
3 47 48 49
3 50 51 52
4 53 54 55 56
3 57 58 59
