ply
format ascii 1.0
comment Created by Blender 2.59 (sub 0) - www.blender.org, source file: 'plus.blend'
element vertex 120
property float x
property float y
property float z
property float nx
property float ny
property float nz
element face 36
property list uchar uint vertex_indices
end_header
0.866025 0.000000 -0.500000 0.495572 0.132788 -0.858356 
-0.000000 0.000000 -1.000000 0.495572 0.132788 -0.858356 
0.750000 0.433013 -0.500000 0.495572 0.132788 -0.858356 
0.866025 0.000000 0.500000 0.965926 0.258819 -0.000000 
0.866025 0.000000 -0.500000 0.965926 0.258819 -0.000000 
0.750000 0.433013 -0.500000 0.965926 0.258819 -0.000000 
0.750000 0.433013 0.500000 0.965926 0.258819 -0.000000 
0.000000 0.000000 1.000000 0.495572 0.132788 0.858356 
0.866025 0.000000 0.500000 0.495572 0.132788 0.858356 
0.750000 0.433013 0.500000 0.495572 0.132788 0.858356 
0.000000 0.000000 1.000000 0.362784 0.362784 0.858356 
0.750000 0.433013 0.500000 0.362784 0.362784 0.858356 
0.433013 0.750000 0.500000 0.362784 0.362784 0.858356 
0.750000 0.433013 0.500000 0.707107 0.707107 -0.000000 
0.750000 0.433013 -0.500000 0.707107 0.707107 -0.000000 
0.433013 0.750000 -0.500000 0.707107 0.707107 -0.000000 
0.433013 0.750000 0.500000 0.707107 0.707107 -0.000000 
0.750000 0.433013 -0.500000 0.362784 0.362784 -0.858356 
-0.000000 0.000000 -1.000000 0.362784 0.362784 -0.858356 
0.433013 0.750000 -0.500000 0.362784 0.362784 -0.858356 
0.433013 0.750000 -0.500000 0.132788 0.495572 -0.858356 
-0.000000 0.000000 -1.000000 0.132788 0.495572 -0.858356 
-0.000000 0.866025 -0.500000 0.132788 0.495572 -0.858356 
0.433013 0.750000 0.500000 0.258819 0.965926 -0.000000 
0.433013 0.750000 -0.500000 0.258819 0.965926 -0.000000 
-0.000000 0.866025 -0.500000 0.258819 0.965926 -0.000000 
-0.000000 0.866025 0.500000 0.258819 0.965926 -0.000000 
0.000000 0.000000 1.000000 0.132788 0.495572 0.858356 
0.433013 0.750000 0.500000 0.132788 0.495572 0.858356 
-0.000000 0.866025 0.500000 0.132788 0.495572 0.858356 
0.000000 0.000000 1.000000 -0.132788 0.495572 0.858356 
-0.000000 0.866025 0.500000 -0.132788 0.495572 0.858356 
-0.433013 0.750000 0.500000 -0.132788 0.495572 0.858356 
-0.000000 0.866025 0.500000 -0.258819 0.965926 -0.000000 
-0.000000 0.866025 -0.500000 -0.258819 0.965926 -0.000000 
-0.433013 0.750000 -0.500000 -0.258819 0.965926 -0.000000 
-0.433013 0.750000 0.500000 -0.258819 0.965926 -0.000000 
-0.000000 0.866025 -0.500000 -0.132788 0.495572 -0.858356 
-0.000000 0.000000 -1.000000 -0.132788 0.495572 -0.858356 
-0.433013 0.750000 -0.500000 -0.132788 0.495572 -0.858356 
-0.433013 0.750000 -0.500000 -0.362784 0.362784 -0.858356 
-0.000000 0.000000 -1.000000 -0.362784 0.362784 -0.858356 
-0.750000 0.433013 -0.500000 -0.362784 0.362784 -0.858356 
-0.433013 0.750000 0.500000 -0.707107 0.707107 -0.000000 
-0.433013 0.750000 -0.500000 -0.707107 0.707107 -0.000000 
-0.750000 0.433013 -0.500000 -0.707107 0.707107 -0.000000 
-0.750000 0.433013 0.500000 -0.707107 0.707107 -0.000000 
0.000000 0.000000 1.000000 -0.362784 0.362784 0.858356 
-0.433013 0.750000 0.500000 -0.362784 0.362784 0.858356 
-0.750000 0.433013 0.500000 -0.362784 0.362784 0.858356 
0.000000 0.000000 1.000000 -0.495572 0.132788 0.858356 
-0.750000 0.433013 0.500000 -0.495572 0.132788 0.858356 
-0.866025 -0.000000 0.500000 -0.495572 0.132788 0.858356 
-0.750000 0.433013 0.500000 -0.965926 0.258819 -0.000000 
-0.750000 0.433013 -0.500000 -0.965926 0.258819 -0.000000 
-0.866025 0.000000 -0.500000 -0.965926 0.258819 -0.000000 
-0.866025 -0.000000 0.500000 -0.965926 0.258819 -0.000000 
-0.750000 0.433013 -0.500000 -0.495572 0.132788 -0.858356 
-0.000000 0.000000 -1.000000 -0.495572 0.132788 -0.858356 
-0.866025 0.000000 -0.500000 -0.495572 0.132788 -0.858356 
-0.866025 0.000000 -0.500000 -0.495572 -0.132788 -0.858356 
-0.000000 0.000000 -1.000000 -0.495572 -0.132788 -0.858356 
-0.750000 -0.433013 -0.500000 -0.495572 -0.132788 -0.858356 
-0.866025 -0.000000 0.500000 -0.965926 -0.258819 -0.000000 
-0.866025 0.000000 -0.500000 -0.965926 -0.258819 -0.000000 
-0.750000 -0.433013 -0.500000 -0.965926 -0.258819 -0.000000 
-0.750000 -0.433013 0.500000 -0.965926 -0.258819 -0.000000 
0.000000 0.000000 1.000000 -0.495572 -0.132788 0.858356 
-0.866025 -0.000000 0.500000 -0.495572 -0.132788 0.858356 
-0.750000 -0.433013 0.500000 -0.495572 -0.132788 0.858356 
0.000000 0.000000 1.000000 -0.362784 -0.362784 0.858356 
-0.750000 -0.433013 0.500000 -0.362784 -0.362784 0.858356 
-0.433013 -0.750000 0.500000 -0.362784 -0.362784 0.858356 
-0.750000 -0.433013 0.500000 -0.707107 -0.707107 -0.000000 
-0.750000 -0.433013 -0.500000 -0.707107 -0.707107 -0.000000 
-0.433013 -0.750000 -0.500000 -0.707107 -0.707107 -0.000000 
-0.433013 -0.750000 0.500000 -0.707107 -0.707107 -0.000000 
-0.750000 -0.433013 -0.500000 -0.362784 -0.362784 -0.858356 
-0.000000 0.000000 -1.000000 -0.362784 -0.362784 -0.858356 
-0.433013 -0.750000 -0.500000 -0.362784 -0.362784 -0.858356 
-0.433013 -0.750000 -0.500000 -0.132788 -0.495572 -0.858356 
-0.000000 0.000000 -1.000000 -0.132788 -0.495572 -0.858356 
-0.000000 -0.866025 -0.500000 -0.132788 -0.495572 -0.858356 
-0.433013 -0.750000 0.500000 -0.258819 -0.965926 -0.000000 
-0.433013 -0.750000 -0.500000 -0.258819 -0.965926 -0.000000 
-0.000000 -0.866025 -0.500000 -0.258819 -0.965926 -0.000000 
0.000000 -0.866025 0.500000 -0.258819 -0.965926 -0.000000 
0.000000 0.000000 1.000000 -0.132788 -0.495572 0.858356 
-0.433013 -0.750000 0.500000 -0.132788 -0.495572 0.858356 
0.000000 -0.866025 0.500000 -0.132788 -0.495572 0.858356 
0.000000 0.000000 1.000000 0.132788 -0.495572 0.858356 
0.000000 -0.866025 0.500000 0.132788 -0.495572 0.858356 
0.433013 -0.750000 0.500000 0.132788 -0.495572 0.858356 
0.000000 -0.866025 0.500000 0.258819 -0.965926 0.000000 
-0.000000 -0.866025 -0.500000 0.258819 -0.965926 0.000000 
0.433013 -0.750000 -0.500000 0.258819 -0.965926 0.000000 
0.433013 -0.750000 0.500000 0.258819 -0.965926 0.000000 
-0.000000 -0.866025 -0.500000 0.132788 -0.495572 -0.858356 
-0.000000 0.000000 -1.000000 0.132788 -0.495572 -0.858356 
0.433013 -0.750000 -0.500000 0.132788 -0.495572 -0.858356 
0.433013 -0.750000 -0.500000 0.362784 -0.362784 -0.858356 
-0.000000 0.000000 -1.000000 0.362784 -0.362784 -0.858356 
0.750000 -0.433013 -0.500000 0.362784 -0.362784 -0.858356 
0.433013 -0.750000 0.500000 0.707107 -0.707107 -0.000000 
0.433013 -0.750000 -0.500000 0.707107 -0.707107 -0.000000 
0.750000 -0.433013 -0.500000 0.707107 -0.707107 -0.000000 
0.750000 -0.433013 0.500000 0.707107 -0.707107 -0.000000 
0.000000 0.000000 1.000000 0.362784 -0.362784 0.858356 
0.433013 -0.750000 0.500000 0.362784 -0.362784 0.858356 
0.750000 -0.433013 0.500000 0.362784 -0.362784 0.858356 
0.000000 0.000000 1.000000 0.495572 -0.132788 0.858356 
0.750000 -0.433013 0.500000 0.495572 -0.132788 0.858356 
0.866025 0.000000 0.500000 0.495572 -0.132788 0.858356 
0.750000 -0.433013 0.500000 0.965926 -0.258819 -0.000000 
0.750000 -0.433013 -0.500000 0.965926 -0.258819 -0.000000 
0.866025 0.000000 -0.500000 0.965926 -0.258819 -0.000000 
0.866025 0.000000 0.500000 0.965926 -0.258819 -0.000000 
0.750000 -0.433013 -0.500000 0.495572 -0.132788 -0.858356 
-0.000000 0.000000 -1.000000 0.495572 -0.132788 -0.858356 
0.866025 0.000000 -0.500000 0.495572 -0.132788 -0.858356 
3 0 1 2
4 3 4 5 6
3 7 8 9
3 10 11 12
4 13 14 15 16
3 17 18 19
3 20 21 22
4 23 24 25 26
3 27 28 29
3 30 31 32
4 33 34 35 36
3 37 38 39
3 40 41 42
4 43 44 45 46
3 47 48 49
3 50 51 52
4 53 54 55 56
3 57 58 59
3 60 61 62
4 63 64 65 66
3 67 68 69
3 70 71 72
4 73 74 75 76
3 77 78 79
3 80 81 82
4 83 84 85 86
3 87 88 89
3 90 91 92
4 93 94 95 96
3 97 98 99
3 100 101 102
4 103 104 105 106
3 107 108 109
3 110 111 112
4 113 114 115 116
3 117 118 119
