ply
format ascii 1.0
comment Created by Blender 2.63 (sub 0) - www.blender.org, source file: 'tube2.blend'
element vertex 110
property float x
property float y
property float z
property float nx
property float ny
property float nz
element face 86
property list uchar uint vertex_indices
end_header
0.195090 0.980785 1.000000 -0.000000 0.000000 1.000000
0.000000 1.000000 1.000000 -0.000000 0.000000 1.000000
-0.195089 0.980786 1.000000 -0.000000 0.000000 1.000000
-0.382682 0.923880 1.000000 -0.000000 0.000000 1.000000
0.382683 0.923880 1.000000 0.000000 -0.000000 1.000000
-0.175580 0.882707 1.000000 0.000000 0.000000 1.000000
0.000000 0.900000 1.000000 0.000000 0.000000 1.000000
0.070114 0.893094 1.000000 0.000000 0.000000 1.000000
-0.555569 0.831470 1.000000 0.000000 0.000000 1.000000
-0.243000 0.862256 1.000000 0.000000 0.000000 1.000000
-0.344455 0.831470 1.000000 0.000000 0.000000 1.000000
-0.344414 0.831492 1.000000 0.000000 0.000000 1.000000
0.175581 0.882707 1.000000 0.000000 -0.000000 1.000000
0.344415 0.831492 1.000000 0.000000 -0.000000 1.000000
0.344456 0.831470 1.000000 0.000000 0.000000 1.000000
0.555570 0.831470 1.000000 0.000000 0.000000 1.000000
-0.707106 0.707108 1.000000 0.000000 0.000000 1.000000
-0.528840 0.724665 1.000000 0.000000 0.000000 1.000000
-0.500012 0.748323 1.000000 0.000000 0.000000 1.000000
0.377304 0.813912 1.000000 0.000000 0.000000 1.000000
-0.550234 0.707108 1.000000 0.000000 0.000000 1.000000
0.550235 0.707107 1.000000 0.000000 0.000000 1.000000
0.707107 0.707107 1.000000 0.000000 0.000000 1.000000
0.500013 0.748323 1.000000 0.000000 0.000000 1.000000
-0.831469 0.555571 1.000000 0.000000 0.000000 1.000000
-0.691406 0.569366 1.000000 0.000000 0.000000 1.000000
-0.636395 0.636397 1.000000 0.000000 0.000000 1.000000
0.567044 0.693312 1.000000 0.000000 0.000000 1.000000
-0.702727 0.555571 1.000000 0.000000 0.000000 1.000000
0.702728 0.555570 1.000000 0.000000 0.000000 1.000000
0.831470 0.555570 1.000000 0.000000 0.000000 1.000000
0.636396 0.636396 1.000000 0.000000 0.000000 1.000000
-0.923879 0.382684 1.000000 0.000000 0.000000 1.000000
-0.804766 0.394416 1.000000 0.000000 0.000000 1.000000
-0.748322 0.500014 1.000000 0.000000 0.000000 1.000000
0.712356 0.543839 1.000000 0.000000 0.000000 1.000000
-0.811036 0.382684 1.000000 0.000000 0.000000 1.000000
0.811037 0.382683 1.000000 0.000000 0.000000 1.000000
0.923880 0.382683 1.000000 0.000000 0.000000 1.000000
0.748323 0.500013 1.000000 0.000000 0.000000 1.000000
-0.831491 0.344416 1.000000 0.000000 0.000000 1.000000
-0.980785 0.195091 1.000000 0.000000 0.000000 1.000000
-0.873586 0.205650 1.000000 0.000000 0.000000 1.000000
0.816680 0.372125 1.000000 0.000000 0.000000 1.000000
-0.876788 0.195091 1.000000 0.000000 0.000000 1.000000
0.831492 0.344415 1.000000 0.000000 -0.000000 1.000000
0.876789 0.195090 1.000000 0.000000 0.000000 1.000000
0.980785 0.195090 1.000000 0.000000 0.000000 1.000000
-0.882707 0.175582 1.000000 0.000000 0.000000 1.000000
-1.000000 0.000001 1.000000 0.000000 0.000000 1.000000
-0.899020 0.009947 1.000000 0.000000 0.000000 1.000000
0.879806 0.185145 1.000000 0.000000 0.000000 1.000000
-0.900000 0.000001 1.000000 0.000000 0.000000 1.000000
0.882707 0.175581 1.000000 0.000000 -0.000000 1.000000
0.900000 0.000000 1.000000 0.000000 0.000000 1.000000
1.000000 0.000000 1.000000 0.000000 0.000000 1.000000
-0.980785 -0.195089 1.000000 0.000000 0.000000 1.000000
-0.882707 -0.175581 1.000000 0.000000 0.000000 1.000000
-0.900000 0.000001 1.000000 0.000000 0.000000 1.000000
-0.879806 -0.185144 1.000000 0.000000 0.000000 1.000000
0.900000 0.000000 1.000000 -0.000000 0.000000 1.000000
0.899020 -0.009946 1.000000 0.000000 -0.000000 1.000000
-0.876789 -0.195090 1.000000 0.000000 0.000000 1.000000
0.876789 -0.195090 1.000000 0.000000 0.000000 1.000000
0.980785 -0.195090 1.000000 0.000000 0.000000 1.000000
0.882707 -0.175581 1.000000 0.000000 0.000000 1.000000
-0.923880 -0.382683 1.000000 0.000000 0.000000 1.000000
-0.816680 -0.372124 1.000000 0.000000 0.000000 1.000000
-0.831492 -0.344414 1.000000 0.000000 0.000000 1.000000
0.873586 -0.205648 1.000000 0.000000 0.000000 1.000000
-0.811037 -0.382683 1.000000 0.000000 0.000000 1.000000
0.811037 -0.382683 1.000000 0.000000 0.000000 1.000000
0.923880 -0.382683 1.000000 0.000000 0.000000 1.000000
0.831492 -0.344415 1.000000 0.000000 0.000000 1.000000
-0.831470 -0.555570 1.000000 0.000000 0.000000 1.000000
-0.748323 -0.500013 1.000000 0.000000 0.000000 1.000000
-0.712357 -0.543838 1.000000 0.000000 0.000000 1.000000
0.804766 -0.394415 1.000000 0.000000 0.000000 1.000000
-0.702729 -0.555570 1.000000 0.000000 0.000000 1.000000
0.831470 -0.555570 1.000000 -0.000000 0.000000 1.000000
0.748323 -0.500013 1.000000 -0.000000 0.000000 1.000000
0.702728 -0.555570 1.000000 0.000000 -0.000000 1.000000
-0.707107 -0.707106 1.000000 0.000000 0.000000 1.000000
-0.636397 -0.636396 1.000000 0.000000 0.000000 1.000000
-0.567045 -0.693311 1.000000 0.000000 0.000000 1.000000
0.691407 -0.569365 1.000000 0.000000 0.000000 1.000000
-0.550235 -0.707106 1.000000 0.000000 0.000000 1.000000
0.707107 -0.707107 1.000000 -0.000000 0.000000 1.000000
0.636396 -0.636396 1.000000 -0.000000 0.000000 1.000000
0.550235 -0.707107 1.000000 0.000000 -0.000000 1.000000
-0.555571 -0.831469 1.000000 0.000000 0.000000 1.000000
-0.500014 -0.748322 1.000000 0.000000 0.000000 1.000000
-0.377305 -0.813912 1.000000 0.000000 0.000000 1.000000
0.528841 -0.724664 1.000000 0.000000 0.000000 1.000000
-0.344457 -0.831469 1.000000 0.000000 0.000000 1.000000
0.555570 -0.831470 1.000000 -0.000000 0.000000 1.000000
0.500013 -0.748323 1.000000 -0.000000 0.000000 1.000000
0.344456 -0.831470 1.000000 0.000000 -0.000000 1.000000
-0.382684 -0.923879 1.000000 0.000000 0.000000 1.000000
-0.175582 -0.882707 1.000000 0.000000 0.000000 1.000000
-0.344415 -0.831491 1.000000 0.000000 0.000000 1.000000
-0.070116 -0.893094 1.000000 0.000000 0.000000 1.000000
0.344415 -0.831492 1.000000 -0.000000 0.000000 1.000000
0.243002 -0.862255 1.000000 0.000000 -0.000000 1.000000
0.382683 -0.923880 1.000000 -0.000000 0.000000 1.000000
0.175581 -0.882707 1.000000 -0.000000 0.000000 1.000000
-0.000000 -0.900000 1.000000 -0.000000 0.000000 1.000000
-0.195091 -0.980785 1.000000 0.000000 0.000000 1.000000
0.195090 -0.980785 1.000000 0.000000 0.000000 1.000000
-0.000000 -1.000000 1.000000 0.000000 0.000000 1.000000
3 0 1 2
3 0 2 3
3 0 3 4
3 3 5 6
3 6 4 3
3 6 7 4
4 3 8 9 5
3 8 10 11
3 11 9 8
3 4 12 13
3 4 7 12
4 14 15 4 13
4 8 16 17 18
3 18 10 8
3 19 15 14
3 16 20 17
4 21 22 15 23
3 15 19 23
4 16 24 25 26
3 26 20 16
3 27 22 21
3 24 28 25
4 29 30 22 31
3 22 27 31
4 24 32 33 34
3 34 28 24
3 35 30 29
3 32 36 33
4 37 38 30 39
3 30 35 39
3 32 40 36
4 32 41 42 40
3 43 38 37
3 41 44 42
3 38 43 45
4 46 47 38 45
3 41 48 44
4 41 49 50 48
3 51 47 46
3 49 52 50
3 47 51 53
4 54 55 47 53
3 56 57 58
4 52 49 56 58
3 56 59 57
3 55 54 60
3 60 61 55
3 56 62 59
3 63 64 65
4 64 55 61 65
3 66 67 68
4 62 56 66 68
3 69 64 63
3 66 70 67
3 71 72 73
4 72 64 69 73
4 74 75 70 66
3 74 76 75
3 77 72 71
3 74 78 76
4 79 72 77 80
3 80 81 79
4 82 83 78 74
3 82 84 83
3 85 79 81
3 82 86 84
4 87 79 85 88
3 88 89 87
4 90 91 86 82
3 90 92 91
3 93 87 89
3 90 94 92
4 95 87 93 96
3 96 97 95
3 98 99 100
3 98 101 99
4 94 90 98 100
3 95 97 102
3 102 103 95
3 104 105 106
3 106 98 104
3 106 101 98
4 104 95 103 105
3 98 107 104
3 107 108 104
3 107 109 108
