ply
format ascii 1.0
comment Created by Blender 2.59 (sub 0) - www.blender.org, source file: ''
element vertex 64
property float x
property float y
property float z
property float nx
property float ny
property float nz
element face 16
property list uchar uint vertex_indices
end_header
0.500000 0.000000 0.000000 0.577350 0.577350 0.577350 
0.000000 0.500000 0.000000 0.577350 0.577350 0.577350 
0.000000 0.450000 0.050000 0.577350 0.577350 0.577350 
0.450000 0.000000 0.050000 0.577350 0.577350 0.577350 
0.450000 0.000000 0.050000 -0.577350 -0.577350 0.577350 
0.000000 0.450000 0.050000 -0.577350 -0.577350 0.577350 
0.000000 0.400000 0.000000 -0.577350 -0.577350 0.577350 
0.400000 0.000000 0.000000 -0.577350 -0.577350 0.577350 
0.400000 0.000000 0.000000 -0.577350 -0.577350 -0.577350 
0.000000 0.400000 0.000000 -0.577350 -0.577350 -0.577350 
0.000000 0.450000 -0.050000 -0.577350 -0.577350 -0.577350 
0.450000 0.000000 -0.050000 -0.577350 -0.577350 -0.577350 
0.500000 0.000000 0.000000 0.577350 0.577350 -0.577350 
0.450000 0.000000 -0.050000 0.577350 0.577350 -0.577350 
0.000000 0.450000 -0.050000 0.577350 0.577350 -0.577350 
0.000000 0.500000 0.000000 0.577350 0.577350 -0.577350 
0.000000 0.500000 0.000000 -0.577350 0.577350 0.577350 
-0.500000 0.000000 0.000000 -0.577350 0.577350 0.577350 
-0.450000 0.000000 0.050000 -0.577350 0.577350 0.577350 
0.000000 0.450000 0.050000 -0.577350 0.577350 0.577350 
0.000000 0.450000 0.050000 0.577350 -0.577350 0.577350 
-0.450000 0.000000 0.050000 0.577350 -0.577350 0.577350 
-0.400000 0.000000 0.000000 0.577350 -0.577350 0.577350 
0.000000 0.400000 0.000000 0.577350 -0.577350 0.577350 
0.000000 0.400000 0.000000 0.577350 -0.577350 -0.577350 
-0.400000 0.000000 0.000000 0.577350 -0.577350 -0.577350 
-0.450000 0.000000 -0.050000 0.577350 -0.577350 -0.577350 
0.000000 0.450000 -0.050000 0.577350 -0.577350 -0.577350 
0.000000 0.450000 -0.050000 -0.577350 0.577350 -0.577350 
-0.450000 0.000000 -0.050000 -0.577350 0.577350 -0.577350 
-0.500000 0.000000 0.000000 -0.577350 0.577350 -0.577350 
0.000000 0.500000 0.000000 -0.577350 0.577350 -0.577350 
-0.500000 0.000000 0.000000 -0.577350 -0.577350 0.577350 
0.000000 -0.500000 0.000000 -0.577350 -0.577350 0.577350 
0.000000 -0.450000 0.050000 -0.577350 -0.577350 0.577350 
-0.450000 0.000000 0.050000 -0.577350 -0.577350 0.577350 
-0.450000 0.000000 0.050000 0.577350 0.577350 0.577350 
0.000000 -0.450000 0.050000 0.577350 0.577350 0.577350 
0.000000 -0.400000 0.000000 0.577350 0.577350 0.577350 
-0.400000 0.000000 0.000000 0.577350 0.577350 0.577350 
-0.400000 0.000000 0.000000 0.577350 0.577350 -0.577350 
0.000000 -0.400000 0.000000 0.577350 0.577350 -0.577350 
0.000000 -0.450000 -0.050000 0.577350 0.577350 -0.577350 
-0.450000 0.000000 -0.050000 0.577350 0.577350 -0.577350 
-0.450000 0.000000 -0.050000 -0.577350 -0.577350 -0.577350 
0.000000 -0.450000 -0.050000 -0.577350 -0.577350 -0.577350 
0.000000 -0.500000 0.000000 -0.577350 -0.577350 -0.577350 
-0.500000 0.000000 0.000000 -0.577350 -0.577350 -0.577350 
0.000000 -0.500000 0.000000 0.577350 -0.577350 0.577350 
0.500000 0.000000 0.000000 0.577350 -0.577350 0.577350 
0.450000 0.000000 0.050000 0.577350 -0.577350 0.577350 
0.000000 -0.450000 0.050000 0.577350 -0.577350 0.577350 
0.000000 -0.450000 0.050000 -0.577350 0.577350 0.577350 
0.450000 0.000000 0.050000 -0.577350 0.577350 0.577350 
0.400000 0.000000 0.000000 -0.577350 0.577350 0.577350 
0.000000 -0.400000 0.000000 -0.577350 0.577350 0.577350 
0.000000 -0.400000 0.000000 -0.577350 0.577350 -0.577350 
0.400000 0.000000 0.000000 -0.577350 0.577350 -0.577350 
0.450000 0.000000 -0.050000 -0.577350 0.577350 -0.577350 
0.000000 -0.450000 -0.050000 -0.577350 0.577350 -0.577350 
0.000000 -0.450000 -0.050000 0.577350 -0.577350 -0.577350 
0.450000 0.000000 -0.050000 0.577350 -0.577350 -0.577350 
0.500000 0.000000 0.000000 0.577350 -0.577350 -0.577350 
0.000000 -0.500000 0.000000 0.577350 -0.577350 -0.577350 
4 0 1 2 3
4 4 5 6 7
4 8 9 10 11
4 12 13 14 15
4 16 17 18 19
4 20 21 22 23
4 24 25 26 27
4 28 29 30 31
4 32 33 34 35
4 36 37 38 39
4 40 41 42 43
4 44 45 46 47
4 48 49 50 51
4 52 53 54 55
4 56 57 58 59
4 60 61 62 63
