ply
format ascii 1.0
comment Created by Blender 2.63 (sub 0) - www.blender.org, source file: 'tube3.blend'
element vertex 297
property float x
property float y
property float z
property float nx
property float ny
property float nz
element face 143
property list uchar uint vertex_indices
end_header
0.980785 -0.195090 1.000000 0.956940 -0.290285 0.000000
0.923880 -0.382683 1.000000 0.956940 -0.290285 0.000000
0.923880 -0.382683 -1.000000 0.956940 -0.290285 0.000000
0.980785 -0.195090 -1.000000 0.956940 -0.290285 0.000000
0.923880 -0.382683 1.000000 0.881921 -0.471396 0.000000
0.831470 -0.555570 1.000000 0.881921 -0.471396 0.000000
0.831470 -0.555570 -1.000000 0.881921 -0.471396 0.000000
0.923880 -0.382683 -1.000000 0.881921 -0.471396 0.000000
0.831470 -0.555570 1.000000 0.773010 -0.634393 0.000000
0.707107 -0.707107 1.000000 0.773010 -0.634393 0.000000
0.707107 -0.707107 -1.000000 0.773010 -0.634393 0.000000
0.831470 -0.555570 -1.000000 0.773010 -0.634393 0.000000
0.707107 -0.707107 1.000000 0.634393 -0.773010 0.000000
0.555570 -0.831470 1.000000 0.634393 -0.773010 0.000000
0.555570 -0.831470 -1.000000 0.634393 -0.773010 0.000000
0.707107 -0.707107 -1.000000 0.634393 -0.773010 0.000000
0.555570 -0.831470 1.000000 0.471396 -0.881921 0.000000
0.382683 -0.923880 1.000000 0.471396 -0.881921 0.000000
0.382683 -0.923880 -1.000000 0.471396 -0.881921 0.000000
0.555570 -0.831470 -1.000000 0.471396 -0.881921 0.000000
0.382683 -0.923880 1.000000 0.290285 -0.956940 0.000000
0.195090 -0.980785 1.000000 0.290285 -0.956940 0.000000
0.195090 -0.980785 -1.000000 0.290285 -0.956940 0.000000
0.382683 -0.923880 -1.000000 0.290285 -0.956940 0.000000
0.195090 -0.980785 1.000000 0.098017 -0.995185 0.000000
-0.000000 -1.000000 1.000000 0.098017 -0.995185 0.000000
-0.000000 -1.000000 -1.000000 0.098017 -0.995185 0.000000
0.195090 -0.980785 -1.000000 0.098017 -0.995185 0.000000
-0.000000 -1.000000 1.000000 -0.098018 -0.995185 0.000000
-0.195091 -0.980785 1.000000 -0.098018 -0.995185 0.000000
-0.195091 -0.980785 -1.000000 -0.098018 -0.995185 0.000000
-0.000000 -1.000000 -1.000000 -0.098018 -0.995185 0.000000
-0.195091 -0.980785 1.000000 -0.290285 -0.956940 0.000000
-0.382684 -0.923879 1.000000 -0.290285 -0.956940 0.000000
-0.382684 -0.923879 -1.000000 -0.290285 -0.956940 0.000000
-0.195091 -0.980785 -1.000000 -0.290285 -0.956940 0.000000
-0.382684 -0.923879 1.000000 -0.471397 -0.881921 0.000000
-0.555571 -0.831469 1.000000 -0.471397 -0.881921 0.000000
-0.555571 -0.831469 -1.000000 -0.471397 -0.881921 0.000000
-0.382684 -0.923879 -1.000000 -0.471397 -0.881921 0.000000
-0.555571 -0.831469 1.000000 -0.634394 -0.773010 0.000000
-0.707107 -0.707106 1.000000 -0.634394 -0.773010 0.000000
-0.707107 -0.707106 -1.000000 -0.634394 -0.773010 0.000000
-0.555571 -0.831469 -1.000000 -0.634394 -0.773010 0.000000
-0.707107 -0.707106 1.000000 -0.773011 -0.634393 0.000000
-0.831470 -0.555570 1.000000 -0.773011 -0.634393 0.000000
-0.831470 -0.555570 -1.000000 -0.773011 -0.634393 0.000000
-0.707107 -0.707106 -1.000000 -0.773011 -0.634393 0.000000
-0.831470 -0.555570 1.000000 -0.881922 -0.471396 0.000000
-0.923880 -0.382683 1.000000 -0.881922 -0.471396 0.000000
-0.923880 -0.382683 -1.000000 -0.881922 -0.471396 0.000000
-0.831470 -0.555570 -1.000000 -0.881922 -0.471396 0.000000
-0.923880 -0.382683 1.000000 -0.956941 -0.290284 0.000000
-0.980785 -0.195089 1.000000 -0.956941 -0.290284 0.000000
-0.980785 -0.195089 -1.000000 -0.956941 -0.290284 0.000000
-0.923880 -0.382683 -1.000000 -0.956941 -0.290284 0.000000
-0.980785 -0.195089 1.000000 -0.995185 -0.098016 0.000000
-1.000000 0.000001 1.000000 -0.995185 -0.098016 0.000000
-1.000000 0.000001 -1.000000 -0.995185 -0.098016 0.000000
-0.980785 -0.195089 -1.000000 -0.995185 -0.098016 0.000000
-0.980785 -0.195089 1.000000 0.000000 0.000000 1.000000
-0.882707 -0.175581 1.000000 0.000000 0.000000 1.000000
-0.900000 0.000001 1.000000 0.000000 0.000000 1.000000
-0.879806 -0.185144 1.000000 0.000000 0.000000 1.000000
0.899020 -0.009946 1.000000 -0.000000 0.000000 1.000000
1.000000 0.000000 1.000000 -0.000000 0.000000 1.000000
0.900000 0.000000 1.000000 -0.000000 0.000000 1.000000
-0.876789 -0.195090 1.000000 0.000000 0.000000 1.000000
0.876789 -0.195090 1.000000 0.000000 0.000000 1.000000
0.980785 -0.195090 1.000000 0.000000 0.000000 1.000000
0.882707 -0.175581 1.000000 0.000000 0.000000 1.000000
-0.923880 -0.382683 1.000000 0.000000 0.000000 1.000000
-0.816680 -0.372124 1.000000 0.000000 0.000000 1.000000
-0.831492 -0.344414 1.000000 0.000000 0.000000 1.000000
0.873586 -0.205648 1.000000 0.000000 0.000000 1.000000
-0.811037 -0.382683 1.000000 0.000000 0.000000 1.000000
0.811037 -0.382683 1.000000 0.000000 0.000000 1.000000
0.923880 -0.382683 1.000000 0.000000 0.000000 1.000000
0.831492 -0.344415 1.000000 0.000000 0.000000 1.000000
-0.831470 -0.555570 1.000000 0.000000 0.000000 1.000000
-0.748323 -0.500013 1.000000 0.000000 0.000000 1.000000
-0.712357 -0.543838 1.000000 0.000000 0.000000 1.000000
0.804766 -0.394415 1.000000 0.000000 0.000000 1.000000
-0.702729 -0.555570 1.000000 0.000000 0.000000 1.000000
0.831470 -0.555570 1.000000 -0.000000 0.000000 1.000000
0.748323 -0.500013 1.000000 -0.000000 0.000000 1.000000
0.702728 -0.555570 1.000000 0.000000 -0.000000 1.000000
-0.707107 -0.707106 1.000000 0.000000 0.000000 1.000000
-0.636397 -0.636396 1.000000 0.000000 0.000000 1.000000
-0.567045 -0.693311 1.000000 0.000000 0.000000 1.000000
0.691407 -0.569365 1.000000 0.000000 0.000000 1.000000
-0.550235 -0.707106 1.000000 0.000000 0.000000 1.000000
0.707107 -0.707107 1.000000 -0.000000 0.000000 1.000000
0.636396 -0.636396 1.000000 -0.000000 0.000000 1.000000
0.550235 -0.707107 1.000000 0.000000 -0.000000 1.000000
-0.555571 -0.831469 1.000000 0.000000 0.000000 1.000000
-0.500014 -0.748322 1.000000 0.000000 0.000000 1.000000
-0.377305 -0.813912 1.000000 0.000000 0.000000 1.000000
0.528841 -0.724664 1.000000 0.000000 0.000000 1.000000
-0.344457 -0.831469 1.000000 0.000000 0.000000 1.000000
0.555570 -0.831470 1.000000 -0.000000 0.000000 1.000000
0.500013 -0.748323 1.000000 -0.000000 0.000000 1.000000
0.344456 -0.831470 1.000000 0.000000 -0.000000 1.000000
-0.382684 -0.923879 1.000000 0.000000 0.000000 1.000000
-0.175582 -0.882707 1.000000 0.000000 0.000000 1.000000
-0.344415 -0.831491 1.000000 0.000000 0.000000 1.000000
-0.070116 -0.893094 1.000000 0.000000 0.000000 1.000000
0.344415 -0.831492 1.000000 -0.000000 0.000000 1.000000
0.243002 -0.862255 1.000000 0.000000 -0.000000 1.000000
0.382683 -0.923880 1.000000 -0.000000 0.000000 1.000000
0.175581 -0.882707 1.000000 -0.000000 0.000000 1.000000
-0.000000 -0.900000 1.000000 -0.000000 0.000000 1.000000
-0.195091 -0.980785 1.000000 0.000000 0.000000 1.000000
0.195090 -0.980785 1.000000 0.000000 0.000000 1.000000
-0.000000 -1.000000 1.000000 0.000000 0.000000 1.000000
-0.980785 -0.195089 -1.000000 -0.000000 0.000000 -1.000000
-0.900000 0.000001 -1.000000 -0.000000 0.000000 -1.000000
-0.882707 -0.175581 -1.000000 -0.000000 0.000000 -1.000000
-0.879806 -0.185144 -1.000000 0.000000 0.000000 -1.000000
-0.876789 -0.195090 -1.000000 0.000000 -0.000000 -1.000000
0.980785 -0.195090 -1.000000 0.000000 -0.000000 -1.000000
0.876789 -0.195090 -1.000000 0.000000 -0.000000 -1.000000
0.882707 -0.175581 -1.000000 0.000000 -0.000000 -1.000000
-0.816680 -0.372124 -1.000000 0.000000 -0.000000 -1.000000
-0.923880 -0.382683 -1.000000 0.000000 -0.000000 -1.000000
-0.831492 -0.344414 -1.000000 0.000000 -0.000000 -1.000000
0.873586 -0.205648 -1.000000 0.000000 -0.000000 -1.000000
-0.811037 -0.382683 -1.000000 0.000000 -0.000000 -1.000000
0.923880 -0.382683 -1.000000 0.000000 -0.000000 -1.000000
0.811037 -0.382683 -1.000000 0.000000 -0.000000 -1.000000
0.831492 -0.344415 -1.000000 0.000000 -0.000000 -1.000000
-0.831470 -0.555570 -1.000000 -0.000000 0.000000 -1.000000
-0.748323 -0.500013 -1.000000 -0.000000 0.000000 -1.000000
-0.712357 -0.543838 -1.000000 0.000000 0.000000 -1.000000
0.804766 -0.394415 -1.000000 0.000000 -0.000000 -1.000000
-0.702729 -0.555570 -1.000000 0.000000 -0.000000 -1.000000
0.831470 -0.555570 -1.000000 0.000000 -0.000000 -1.000000
0.748323 -0.500013 -1.000000 0.000000 -0.000000 -1.000000
0.702728 -0.555570 -1.000000 0.000000 -0.000000 -1.000000
-0.707107 -0.707106 -1.000000 -0.000000 0.000000 -1.000000
-0.636397 -0.636396 -1.000000 -0.000000 0.000000 -1.000000
-0.567045 -0.693311 -1.000000 0.000000 0.000000 -1.000000
0.691407 -0.569365 -1.000000 0.000000 -0.000000 -1.000000
-0.550235 -0.707106 -1.000000 0.000000 -0.000000 -1.000000
0.707107 -0.707107 -1.000000 0.000000 -0.000000 -1.000000
0.636396 -0.636396 -1.000000 0.000000 -0.000000 -1.000000
0.550235 -0.707107 -1.000000 0.000000 -0.000000 -1.000000
-0.555571 -0.831469 -1.000000 -0.000000 0.000000 -1.000000
-0.500014 -0.748322 -1.000000 -0.000000 0.000000 -1.000000
-0.377305 -0.813912 -1.000000 0.000000 0.000000 -1.000000
0.528841 -0.724664 -1.000000 0.000000 -0.000000 -1.000000
-0.344457 -0.831469 -1.000000 0.000000 -0.000000 -1.000000
0.555570 -0.831470 -1.000000 0.000000 -0.000000 -1.000000
0.500013 -0.748323 -1.000000 0.000000 -0.000000 -1.000000
0.344456 -0.831470 -1.000000 0.000000 -0.000000 -1.000000
-0.382684 -0.923879 -1.000000 -0.000000 0.000000 -1.000000
-0.344415 -0.831491 -1.000000 -0.000000 0.000000 -1.000000
-0.175582 -0.882707 -1.000000 -0.000000 0.000000 -1.000000
-0.070116 -0.893094 -1.000000 0.000000 0.000000 -1.000000
0.344415 -0.831492 -1.000000 0.000000 -0.000000 -1.000000
0.243002 -0.862255 -1.000000 0.000000 -0.000000 -1.000000
0.382683 -0.923880 -1.000000 0.000000 -0.000000 -1.000000
-0.000000 -0.900000 -1.000000 0.000000 -0.000000 -1.000000
0.175581 -0.882707 -1.000000 0.000000 -0.000000 -1.000000
-0.195091 -0.980785 -1.000000 0.000000 0.000000 -1.000000
0.195090 -0.980785 -1.000000 0.000000 0.000000 -1.000000
-0.000000 -1.000000 -1.000000 0.000000 0.000000 -1.000000
0.900000 0.000000 -1.000000 -0.995185 0.098016 0.000000
0.899020 -0.009946 -1.000000 -0.995185 0.098016 0.000000
0.899020 -0.009946 1.000000 -0.995185 0.098016 0.000000
0.900000 0.000000 1.000000 -0.995185 0.098016 0.000000
0.899020 -0.009946 -1.000000 -0.995185 0.098017 0.000000
0.882707 -0.175581 -1.000000 -0.995185 0.098017 0.000000
0.882707 -0.175581 1.000000 -0.995185 0.098017 0.000000
0.899020 -0.009946 1.000000 -0.995185 0.098017 0.000000
0.882707 -0.175581 -1.000000 -0.956941 0.290284 0.000000
0.876789 -0.195090 -1.000000 -0.956941 0.290284 0.000000
0.876789 -0.195090 1.000000 -0.956941 0.290284 0.000000
0.882707 -0.175581 1.000000 -0.956941 0.290284 0.000000
0.876789 -0.195090 -1.000000 -0.956940 0.290284 0.000000
0.873586 -0.205648 -1.000000 -0.956940 0.290284 0.000000
0.873586 -0.205648 1.000000 -0.956940 0.290284 0.000000
0.876789 -0.195090 1.000000 -0.956940 0.290284 0.000000
0.873586 -0.205648 -1.000000 -0.956940 0.290285 0.000000
0.831492 -0.344415 -1.000000 -0.956940 0.290285 0.000000
0.831492 -0.344415 1.000000 -0.956940 0.290285 0.000000
0.873586 -0.205648 1.000000 -0.956940 0.290285 0.000000
0.811037 -0.382683 -1.000000 -0.881921 0.471397 0.000000
0.804766 -0.394415 1.000000 -0.881921 0.471397 0.000000
0.811037 -0.382683 1.000000 -0.881921 0.471397 0.000000
0.831492 -0.344415 -1.000000 -0.881921 0.471397 0.000000
0.804766 -0.394415 -1.000000 -0.881922 0.471396 0.000000
0.748323 -0.500013 1.000000 -0.881922 0.471396 0.000000
0.804766 -0.394415 1.000000 -0.881922 0.471396 0.000000
0.811037 -0.382683 -1.000000 -0.881922 0.471396 0.000000
0.831492 -0.344415 1.000000 -0.881921 0.471397 0.000000
0.804766 -0.394415 -1.000000 -0.881921 0.471396 0.000000
0.748323 -0.500013 -1.000000 -0.881921 0.471396 0.000000
0.748323 -0.500013 1.000000 -0.881921 0.471396 0.000000
0.702728 -0.555570 -1.000000 -0.773010 0.634394 0.000000
0.691407 -0.569365 1.000000 -0.773010 0.634394 0.000000
0.702728 -0.555570 1.000000 -0.773010 0.634394 0.000000
0.748323 -0.500013 -1.000000 -0.773010 0.634394 0.000000
0.691407 -0.569365 -1.000000 -0.773010 0.634393 0.000000
0.636396 -0.636396 1.000000 -0.773010 0.634393 0.000000
0.691407 -0.569365 1.000000 -0.773010 0.634393 0.000000
0.702728 -0.555570 -1.000000 -0.773010 0.634393 0.000000
0.748323 -0.500013 1.000000 -0.773010 0.634394 0.000000
0.636396 -0.636396 -1.000000 -0.773010 0.634393 0.000000
0.528841 -0.724664 -1.000000 -0.634394 0.773010 0.000000
0.500013 -0.748323 -1.000000 -0.634394 0.773010 0.000000
0.528841 -0.724664 1.000000 -0.634394 0.773010 0.000000
0.550235 -0.707107 1.000000 -0.634394 0.773010 0.000000
0.636396 -0.636396 1.000000 -0.634394 0.773010 0.000000
0.550235 -0.707107 -1.000000 -0.634394 0.773010 0.000000
0.500013 -0.748323 1.000000 -0.634394 0.773010 0.000000
0.636396 -0.636396 -1.000000 -0.634394 0.773010 0.000000
0.344456 -0.831470 -1.000000 -0.471396 0.881921 0.000000
0.344415 -0.831492 -1.000000 -0.471396 0.881921 0.000000
0.344456 -0.831470 1.000000 -0.471396 0.881921 0.000000
0.500013 -0.748323 1.000000 -0.471396 0.881921 0.000000
0.344415 -0.831492 -1.000000 -0.471317 0.881964 0.000000
0.344415 -0.831492 1.000000 -0.471317 0.881964 0.000000
0.344456 -0.831470 1.000000 -0.471317 0.881964 0.000000
0.500013 -0.748323 -1.000000 -0.471396 0.881921 0.000000
0.243002 -0.862255 -1.000000 -0.290285 0.956940 0.000000
0.175581 -0.882707 1.000000 -0.290285 0.956940 0.000000
0.243002 -0.862255 1.000000 -0.290285 0.956940 0.000000
0.344415 -0.831492 -1.000000 -0.290285 0.956940 0.000000
0.175581 -0.882707 -1.000000 -0.290285 0.956940 0.000000
0.344415 -0.831492 1.000000 -0.290285 0.956940 0.000000
-0.000000 -0.900000 -1.000000 -0.098017 0.995185 0.000000
-0.000000 -0.900000 1.000000 -0.098017 0.995185 0.000000
0.175581 -0.882707 1.000000 -0.098017 0.995185 0.000000
0.175581 -0.882707 -1.000000 -0.098017 0.995185 0.000000
-0.000000 -0.900000 -1.000000 0.098018 0.995185 0.000000
-0.070116 -0.893094 -1.000000 0.098018 0.995185 0.000000
-0.070116 -0.893094 1.000000 0.098018 0.995185 0.000000
-0.000000 -0.900000 1.000000 0.098018 0.995185 0.000000
-0.175582 -0.882707 -1.000000 0.098018 0.995185 0.000000
-0.175582 -0.882707 1.000000 0.098018 0.995185 0.000000
-0.344415 -0.831491 -1.000000 0.290285 0.956940 0.000000
-0.344415 -0.831491 1.000000 0.290285 0.956940 0.000000
-0.175582 -0.882707 1.000000 0.290285 0.956940 0.000000
-0.175582 -0.882707 -1.000000 0.290285 0.956940 0.000000
-0.344415 -0.831491 -1.000000 0.471514 0.881859 0.000000
-0.344457 -0.831469 -1.000000 0.471514 0.881859 0.000000
-0.344457 -0.831469 1.000000 0.471514 0.881859 0.000000
-0.344415 -0.831491 1.000000 0.471514 0.881859 0.000000
-0.344457 -0.831469 -1.000000 0.471397 0.881921 0.000000
-0.377305 -0.813912 -1.000000 0.471397 0.881921 0.000000
-0.377305 -0.813912 1.000000 0.471397 0.881921 0.000000
-0.344457 -0.831469 1.000000 0.471397 0.881921 0.000000
-0.500014 -0.748322 -1.000000 0.471397 0.881921 0.000000
-0.500014 -0.748322 1.000000 0.471397 0.881921 0.000000
-0.550235 -0.707106 -1.000000 0.634394 0.773010 0.000000
-0.567045 -0.693311 1.000000 0.634394 0.773010 0.000000
-0.550235 -0.707106 1.000000 0.634394 0.773010 0.000000
-0.500014 -0.748322 -1.000000 0.634394 0.773010 0.000000
-0.567045 -0.693311 -1.000000 0.634394 0.773010 0.000000
-0.636397 -0.636396 1.000000 0.634394 0.773010 0.000000
-0.500014 -0.748322 1.000000 0.634394 0.773010 -0.000000
-0.636397 -0.636396 -1.000000 0.634394 0.773010 0.000000
-0.702729 -0.555570 -1.000000 0.773011 0.634393 0.000000
-0.712357 -0.543838 -1.000000 0.773011 0.634393 0.000000
-0.712357 -0.543838 1.000000 0.773011 0.634393 0.000000
-0.702729 -0.555570 1.000000 0.773011 0.634393 0.000000
-0.748323 -0.500013 -1.000000 0.773011 0.634393 0.000000
-0.748323 -0.500013 1.000000 0.773011 0.634393 0.000000
-0.636397 -0.636396 1.000000 0.773011 0.634393 0.000000
-0.636397 -0.636396 -1.000000 0.773011 0.634393 0.000000
-0.816680 -0.372124 -1.000000 0.881921 0.471397 0.000000
-0.831492 -0.344414 -1.000000 0.881921 0.471397 0.000000
-0.816680 -0.372124 1.000000 0.881921 0.471397 0.000000
-0.811037 -0.382683 1.000000 0.881921 0.471397 0.000000
-0.811037 -0.382683 1.000000 0.881922 0.471396 -0.000000
-0.748323 -0.500013 1.000000 0.881922 0.471396 -0.000000
-0.811037 -0.382683 -1.000000 0.881922 0.471396 -0.000000
-0.816680 -0.372124 -1.000000 0.881922 0.471396 -0.000000
-0.831492 -0.344414 -1.000000 0.881921 0.471396 0.000000
-0.831492 -0.344414 1.000000 0.881921 0.471396 0.000000
-0.816680 -0.372124 1.000000 0.881921 0.471396 0.000000
-0.748323 -0.500013 -1.000000 0.881922 0.471396 -0.000000
-0.879806 -0.185144 -1.000000 0.956941 0.290284 0.000000
-0.882707 -0.175581 -1.000000 0.956941 0.290284 0.000000
-0.879806 -0.185144 1.000000 0.956941 0.290284 0.000000
-0.876789 -0.195090 1.000000 0.956941 0.290284 0.000000
-0.882707 -0.175581 -1.000000 0.956940 0.290284 0.000000
-0.882707 -0.175581 1.000000 0.956940 0.290284 0.000000
-0.879806 -0.185144 1.000000 0.956940 0.290284 0.000000
-0.831492 -0.344414 1.000000 0.956941 0.290284 -0.000000
-0.876789 -0.195090 -1.000000 0.956941 0.290284 -0.000000
-0.831492 -0.344414 -1.000000 0.956941 0.290284 -0.000000
-0.900000 0.000001 -1.000000 0.995185 0.098016 0.000000
-0.900000 0.000001 1.000000 0.995185 0.098016 0.000000
-0.882707 -0.175581 1.000000 0.995185 0.098016 0.000000
-0.882707 -0.175581 -1.000000 0.995185 0.098016 0.000000
4 0 1 2 3
4 4 5 6 7
4 8 9 10 11
4 12 13 14 15
4 16 17 18 19
4 20 21 22 23
4 24 25 26 27
4 28 29 30 31
4 32 33 34 35
4 36 37 38 39
4 40 41 42 43
4 44 45 46 47
4 48 49 50 51
4 52 53 54 55
4 56 57 58 59
3 60 61 62
3 60 63 61
3 64 65 66
3 60 67 63
3 68 69 70
4 69 65 64 70
3 71 72 73
4 67 60 71 73
3 74 69 68
3 71 75 72
3 76 77 78
4 77 69 74 78
4 79 80 75 71
3 79 81 80
3 82 77 76
3 79 83 81
4 84 77 82 85
3 85 86 84
4 87 88 83 79
3 87 89 88
3 90 84 86
3 87 91 89
4 92 84 90 93
3 93 94 92
4 95 96 91 87
3 95 97 96
3 98 92 94
3 95 99 97
4 100 92 98 101
3 101 102 100
3 103 104 105
3 103 106 104
4 99 95 103 105
3 100 102 107
3 107 108 100
3 109 110 111
3 111 103 109
3 111 106 103
4 109 100 108 110
3 103 112 109
3 112 113 109
3 112 114 113
3 115 116 117
3 117 118 115
3 119 115 118
3 120 121 122
3 123 124 125
4 124 115 119 125
3 120 126 121
3 127 124 123
3 128 129 130
4 126 120 128 130
4 131 124 127 132
3 132 133 131
3 128 134 129
3 135 131 133
4 136 137 134 128
3 136 138 137
4 139 131 135 140
3 140 141 139
3 136 142 138
3 143 139 141
4 144 145 142 136
3 144 146 145
4 147 139 143 148
3 148 149 147
3 144 150 146
3 151 147 149
4 152 153 150 144
3 152 154 153
3 155 156 157
3 157 158 155
4 155 147 151 156
3 152 159 154
3 152 160 159
3 161 162 163
3 161 155 162
3 155 158 162
4 160 152 161 163
3 161 164 155
3 161 165 164
3 165 166 164
4 167 168 169 170
4 171 172 173 174
4 175 176 177 178
4 179 180 181 182
4 183 184 185 186
4 187 188 189 190
4 191 192 193 194
3 189 195 190
3 196 197 198
4 199 200 201 202
4 203 204 205 206
3 201 207 202
3 203 208 204
4 209 210 211 212
4 212 213 214 209
3 210 215 211
3 213 216 214
4 217 218 219 220
3 221 222 223
3 220 224 217
4 225 226 227 228
3 225 229 226
3 227 230 228
4 231 232 233 234
4 235 236 237 238
4 236 239 240 237
4 241 242 243 244
4 245 246 247 248
4 249 250 251 252
4 250 253 254 251
4 255 256 257 258
4 259 260 256 255
3 257 261 258
3 259 262 260
4 263 264 265 266
4 267 268 265 264
4 266 269 270 263
4 271 272 273 274
4 275 276 277 278
3 279 280 281
3 276 282 277
4 283 284 285 286
3 287 288 289
4 286 290 291 283
3 290 292 291
4 293 294 295 296
