ply
format ascii 1.0
comment Created by Blender 2.63 (sub 0) - www.blender.org, source file: 'tube.blend'
element vertex 64
property float x
property float y
property float z
property float nx
property float ny
property float nz
element face 16
property list uchar uint vertex_indices
end_header
-0.195090 -0.980786 0.500025 -0.290285 -0.956940 0.000000
-0.382683 -0.923880 0.500025 -0.290285 -0.956940 0.000000
-0.382683 -0.923880 -0.500024 -0.290285 -0.956940 0.000000
-0.195090 -0.980786 -0.500024 -0.290285 -0.956940 0.000000
-0.923879 -0.382684 0.500025 -0.956940 -0.290285 0.000000
-0.980785 -0.195091 0.500025 -0.956940 -0.290285 0.000000
-0.980785 -0.195091 -0.500024 -0.956940 -0.290285 0.000000
-0.923879 -0.382684 -0.500024 -0.956940 -0.290285 0.000000
0.831470 -0.555570 0.500025 0.773011 -0.634393 0.000000
0.707107 -0.707107 0.500025 0.773011 -0.634393 0.000000
0.707107 -0.707107 -0.500024 0.773011 -0.634393 0.000000
0.831470 -0.555570 -0.500024 0.773011 -0.634393 0.000000
0.000000 -1.000000 0.500025 -0.098016 -0.995185 0.000000
-0.195090 -0.980786 0.500025 -0.098016 -0.995185 0.000000
-0.195090 -0.980786 -0.500024 -0.098016 -0.995185 0.000000
0.000000 -1.000000 -0.500024 -0.098016 -0.995185 0.000000
-0.831470 -0.555571 0.500025 -0.881921 -0.471396 0.000000
-0.923879 -0.382684 0.500025 -0.881921 -0.471396 0.000000
-0.923879 -0.382684 -0.500024 -0.881921 -0.471396 0.000000
-0.831470 -0.555571 -0.500024 -0.881921 -0.471396 0.000000
0.923880 -0.382683 0.500025 0.881922 -0.471396 0.000000
0.831470 -0.555570 0.500025 0.881922 -0.471396 0.000000
0.831470 -0.555570 -0.500024 0.881922 -0.471396 0.000000
0.923880 -0.382683 -0.500024 0.881922 -0.471396 0.000000
0.195091 -0.980786 0.500025 0.098017 -0.995185 0.000000
0.000000 -1.000000 0.500025 0.098017 -0.995185 0.000000
0.000000 -1.000000 -0.500024 0.098017 -0.995185 0.000000
0.195091 -0.980786 -0.500024 0.098017 -0.995185 0.000000
-0.707107 -0.707107 0.500025 -0.773010 -0.634393 0.000000
-0.831470 -0.555571 0.500025 -0.773010 -0.634393 0.000000
-0.831470 -0.555571 -0.500024 -0.773010 -0.634393 0.000000
-0.707107 -0.707107 -0.500024 -0.773010 -0.634393 0.000000
0.980786 -0.195090 0.500025 0.956941 -0.290284 0.000000
0.923880 -0.382683 0.500025 0.956941 -0.290284 0.000000
0.923880 -0.382683 -0.500024 0.956941 -0.290284 0.000000
0.980786 -0.195090 -0.500024 0.956941 -0.290284 0.000000
0.382684 -0.923880 0.500025 0.290285 -0.956940 0.000000
0.195091 -0.980786 0.500025 0.290285 -0.956940 0.000000
0.195091 -0.980786 -0.500024 0.290285 -0.956940 0.000000
0.382684 -0.923880 -0.500024 0.290285 -0.956940 0.000000
-0.555570 -0.831470 0.500025 -0.634393 -0.773010 0.000000
-0.707107 -0.707107 0.500025 -0.634393 -0.773010 0.000000
-0.707107 -0.707107 -0.500024 -0.634393 -0.773010 0.000000
-0.555570 -0.831470 -0.500024 -0.634393 -0.773010 0.000000
1.000000 0.000001 0.500025 0.995185 -0.098016 0.000000
0.980786 -0.195090 0.500025 0.995185 -0.098016 0.000000
0.980786 -0.195090 -0.500024 0.995185 -0.098016 0.000000
1.000000 0.000001 -0.500024 0.995185 -0.098016 0.000000
0.555571 -0.831470 0.500025 0.471397 -0.881921 0.000000
0.382684 -0.923880 0.500025 0.471397 -0.881921 0.000000
0.382684 -0.923880 -0.500024 0.471397 -0.881921 0.000000
0.555571 -0.831470 -0.500024 0.471397 -0.881921 0.000000
-0.382683 -0.923880 0.500025 -0.471396 -0.881921 0.000000
-0.555570 -0.831470 0.500025 -0.471396 -0.881921 0.000000
-0.555570 -0.831470 -0.500024 -0.471396 -0.881921 0.000000
-0.382683 -0.923880 -0.500024 -0.471396 -0.881921 0.000000
-1.000000 -0.000000 -0.500024 -0.995185 -0.098017 0.000000
-0.980785 -0.195091 -0.500024 -0.995185 -0.098017 0.000000
-0.980785 -0.195091 0.500025 -0.995185 -0.098017 0.000000
-1.000000 -0.000000 0.500025 -0.995185 -0.098017 0.000000
0.707107 -0.707107 0.500025 0.634394 -0.773010 0.000000
0.555571 -0.831470 0.500025 0.634394 -0.773010 0.000000
0.555571 -0.831470 -0.500024 0.634394 -0.773010 0.000000
0.707107 -0.707107 -0.500024 0.634394 -0.773010 0.000000
4 0 1 2 3
4 4 5 6 7
4 8 9 10 11
4 12 13 14 15
4 16 17 18 19
4 20 21 22 23
4 24 25 26 27
4 28 29 30 31
4 32 33 34 35
4 36 37 38 39
4 40 41 42 43
4 44 45 46 47
4 48 49 50 51
4 52 53 54 55
4 56 57 58 59
4 60 61 62 63
