ply
format ascii 1.0
comment Created by Blender 2.63 (sub 0) - www.blender.org, source file: 'tube2.blend'
element vertex 620
property float x
property float y
property float z
property float nx
property float ny
property float nz
element face 300
property list uchar uint vertex_indices
end_header
0.195090 0.980785 -1.000000 0.098017 0.995185 0.000000
0.000000 1.000000 -1.000000 0.098017 0.995185 0.000000
0.000000 1.000000 1.000000 0.098017 0.995185 0.000000
0.195090 0.980785 1.000000 0.098017 0.995185 0.000000
0.382683 0.923880 -1.000000 0.290284 0.956940 0.000000
0.195090 0.980785 -1.000000 0.290284 0.956940 0.000000
0.195090 0.980785 1.000000 0.290284 0.956940 0.000000
0.382683 0.923880 1.000000 0.290284 0.956940 0.000000
0.382683 0.923880 1.000000 0.471397 0.881921 0.000000
0.555570 0.831470 1.000000 0.471397 0.881921 0.000000
0.555570 0.831470 -1.000000 0.471397 0.881921 0.000000
0.382683 0.923880 -1.000000 0.471397 0.881921 0.000000
0.555570 0.831470 1.000000 0.634393 0.773011 0.000000
0.707107 0.707107 1.000000 0.634393 0.773011 0.000000
0.707107 0.707107 -1.000000 0.634393 0.773011 0.000000
0.555570 0.831470 -1.000000 0.634393 0.773011 0.000000
0.707107 0.707107 1.000000 0.773011 0.634393 0.000000
0.831470 0.555570 1.000000 0.773011 0.634393 0.000000
0.831470 0.555570 -1.000000 0.773011 0.634393 0.000000
0.707107 0.707107 -1.000000 0.773011 0.634393 0.000000
0.831470 0.555570 1.000000 0.881921 0.471397 0.000000
0.923880 0.382683 1.000000 0.881921 0.471397 0.000000
0.923880 0.382683 -1.000000 0.881921 0.471397 0.000000
0.831470 0.555570 -1.000000 0.881921 0.471397 0.000000
0.923880 0.382683 1.000000 0.956940 0.290284 0.000000
0.980785 0.195090 1.000000 0.956940 0.290284 0.000000
0.980785 0.195090 -1.000000 0.956940 0.290284 0.000000
0.923880 0.382683 -1.000000 0.956940 0.290284 0.000000
0.980785 0.195090 1.000000 0.995185 0.098017 0.000000
1.000000 0.000000 1.000000 0.995185 0.098017 0.000000
1.000000 0.000000 -1.000000 0.995185 0.098017 0.000000
0.980785 0.195090 -1.000000 0.995185 0.098017 0.000000
1.000000 0.000000 1.000000 0.995185 -0.098017 0.000000
0.980785 -0.195090 1.000000 0.995185 -0.098017 0.000000
0.980785 -0.195090 -1.000000 0.995185 -0.098017 0.000000
1.000000 0.000000 -1.000000 0.995185 -0.098017 0.000000
0.980785 -0.195090 1.000000 0.956940 -0.290285 0.000000
0.923880 -0.382683 1.000000 0.956940 -0.290285 0.000000
0.923880 -0.382683 -1.000000 0.956940 -0.290285 0.000000
0.980785 -0.195090 -1.000000 0.956940 -0.290285 0.000000
0.923880 -0.382683 1.000000 0.881921 -0.471396 0.000000
0.831470 -0.555570 1.000000 0.881921 -0.471396 0.000000
0.831470 -0.555570 -1.000000 0.881921 -0.471396 0.000000
0.923880 -0.382683 -1.000000 0.881921 -0.471396 0.000000
0.831470 -0.555570 1.000000 0.773010 -0.634393 0.000000
0.707107 -0.707107 1.000000 0.773010 -0.634393 0.000000
0.707107 -0.707107 -1.000000 0.773010 -0.634393 0.000000
0.831470 -0.555570 -1.000000 0.773010 -0.634393 0.000000
0.707107 -0.707107 1.000000 0.634393 -0.773010 0.000000
0.555570 -0.831470 1.000000 0.634393 -0.773010 0.000000
0.555570 -0.831470 -1.000000 0.634393 -0.773010 0.000000
0.707107 -0.707107 -1.000000 0.634393 -0.773010 0.000000
0.555570 -0.831470 1.000000 0.471396 -0.881921 0.000000
0.382683 -0.923880 1.000000 0.471396 -0.881921 0.000000
0.382683 -0.923880 -1.000000 0.471396 -0.881921 0.000000
0.555570 -0.831470 -1.000000 0.471396 -0.881921 0.000000
0.382683 -0.923880 1.000000 0.290285 -0.956940 0.000000
0.195090 -0.980785 1.000000 0.290285 -0.956940 0.000000
0.195090 -0.980785 -1.000000 0.290285 -0.956940 0.000000
0.382683 -0.923880 -1.000000 0.290285 -0.956940 0.000000
0.195090 -0.980785 1.000000 0.098017 -0.995185 0.000000
-0.000000 -1.000000 1.000000 0.098017 -0.995185 0.000000
-0.000000 -1.000000 -1.000000 0.098017 -0.995185 0.000000
0.195090 -0.980785 -1.000000 0.098017 -0.995185 0.000000
-0.000000 -1.000000 1.000000 -0.098018 -0.995185 0.000000
-0.195091 -0.980785 1.000000 -0.098018 -0.995185 0.000000
-0.195091 -0.980785 -1.000000 -0.098018 -0.995185 0.000000
-0.000000 -1.000000 -1.000000 -0.098018 -0.995185 0.000000
-0.195091 -0.980785 1.000000 -0.290285 -0.956940 0.000000
-0.382684 -0.923879 1.000000 -0.290285 -0.956940 0.000000
-0.382684 -0.923879 -1.000000 -0.290285 -0.956940 0.000000
-0.195091 -0.980785 -1.000000 -0.290285 -0.956940 0.000000
-0.382684 -0.923879 1.000000 -0.471397 -0.881921 0.000000
-0.555571 -0.831469 1.000000 -0.471397 -0.881921 0.000000
-0.555571 -0.831469 -1.000000 -0.471397 -0.881921 0.000000
-0.382684 -0.923879 -1.000000 -0.471397 -0.881921 0.000000
-0.555571 -0.831469 1.000000 -0.634394 -0.773010 0.000000
-0.707107 -0.707106 1.000000 -0.634394 -0.773010 0.000000
-0.707107 -0.707106 -1.000000 -0.634394 -0.773010 0.000000
-0.555571 -0.831469 -1.000000 -0.634394 -0.773010 0.000000
-0.707107 -0.707106 1.000000 -0.773011 -0.634393 0.000000
-0.831470 -0.555570 1.000000 -0.773011 -0.634393 0.000000
-0.831470 -0.555570 -1.000000 -0.773011 -0.634393 0.000000
-0.707107 -0.707106 -1.000000 -0.773011 -0.634393 0.000000
-0.831470 -0.555570 1.000000 -0.881922 -0.471396 0.000000
-0.923880 -0.382683 1.000000 -0.881922 -0.471396 0.000000
-0.923880 -0.382683 -1.000000 -0.881922 -0.471396 0.000000
-0.831470 -0.555570 -1.000000 -0.881922 -0.471396 0.000000
-0.923880 -0.382683 1.000000 -0.956941 -0.290284 0.000000
-0.980785 -0.195089 1.000000 -0.956941 -0.290284 0.000000
-0.980785 -0.195089 -1.000000 -0.956941 -0.290284 0.000000
-0.923880 -0.382683 -1.000000 -0.956941 -0.290284 0.000000
-0.980785 -0.195089 1.000000 -0.995185 -0.098016 0.000000
-1.000000 0.000001 1.000000 -0.995185 -0.098016 0.000000
-1.000000 0.000001 -1.000000 -0.995185 -0.098016 0.000000
-0.980785 -0.195089 -1.000000 -0.995185 -0.098016 0.000000
-1.000000 0.000001 1.000000 -0.995185 0.098018 0.000000
-0.980785 0.195091 1.000000 -0.995185 0.098018 0.000000
-0.980785 0.195091 -1.000000 -0.995185 0.098018 0.000000
-1.000000 0.000001 -1.000000 -0.995185 0.098018 0.000000
-0.980785 0.195091 1.000000 -0.956940 0.290286 0.000000
-0.923879 0.382684 1.000000 -0.956940 0.290286 0.000000
-0.923879 0.382684 -1.000000 -0.956940 0.290286 0.000000
-0.980785 0.195091 -1.000000 -0.956940 0.290286 0.000000
-0.923879 0.382684 1.000000 -0.881921 0.471398 0.000000
-0.831469 0.555571 1.000000 -0.881921 0.471398 0.000000
-0.831469 0.555571 -1.000000 -0.881921 0.471398 0.000000
-0.923879 0.382684 -1.000000 -0.881921 0.471398 0.000000
-0.831469 0.555571 1.000000 -0.773010 0.634394 0.000000
-0.707106 0.707108 1.000000 -0.773010 0.634394 0.000000
-0.707106 0.707108 -1.000000 -0.773010 0.634394 0.000000
-0.831469 0.555571 -1.000000 -0.773010 0.634394 0.000000
-0.707106 0.707108 1.000000 -0.634392 0.773011 0.000000
-0.555569 0.831470 1.000000 -0.634392 0.773011 0.000000
-0.555569 0.831470 -1.000000 -0.634392 0.773011 0.000000
-0.707106 0.707108 -1.000000 -0.634392 0.773011 0.000000
-0.555569 0.831470 1.000000 -0.471395 0.881922 0.000000
-0.382682 0.923880 1.000000 -0.471395 0.881922 0.000000
-0.382682 0.923880 -1.000000 -0.471395 0.881922 0.000000
-0.555569 0.831470 -1.000000 -0.471395 0.881922 0.000000
0.195090 0.980785 1.000000 -0.000000 0.000000 1.000000
0.000000 1.000000 1.000000 -0.000000 0.000000 1.000000
-0.195089 0.980786 1.000000 -0.000000 0.000000 1.000000
-0.382682 0.923880 1.000000 -0.000000 0.000000 1.000000
0.382683 0.923880 1.000000 0.000000 -0.000000 1.000000
-0.175580 0.882707 1.000000 0.000000 0.000000 1.000000
0.000000 0.900000 1.000000 0.000000 0.000000 1.000000
0.070114 0.893094 1.000000 0.000000 0.000000 1.000000
-0.555569 0.831470 1.000000 0.000000 0.000000 1.000000
-0.243000 0.862256 1.000000 0.000000 0.000000 1.000000
-0.344455 0.831470 1.000000 0.000000 0.000000 1.000000
-0.344414 0.831492 1.000000 0.000000 0.000000 1.000000
0.175581 0.882707 1.000000 0.000000 -0.000000 1.000000
0.344415 0.831492 1.000000 0.000000 -0.000000 1.000000
0.344456 0.831470 1.000000 0.000000 0.000000 1.000000
0.555570 0.831470 1.000000 0.000000 0.000000 1.000000
-0.707106 0.707108 1.000000 0.000000 0.000000 1.000000
-0.528840 0.724665 1.000000 0.000000 0.000000 1.000000
-0.500012 0.748323 1.000000 0.000000 0.000000 1.000000
0.377304 0.813912 1.000000 0.000000 0.000000 1.000000
-0.550234 0.707108 1.000000 0.000000 0.000000 1.000000
0.550235 0.707107 1.000000 0.000000 0.000000 1.000000
0.707107 0.707107 1.000000 0.000000 0.000000 1.000000
0.500013 0.748323 1.000000 0.000000 0.000000 1.000000
-0.831469 0.555571 1.000000 0.000000 0.000000 1.000000
-0.691406 0.569366 1.000000 0.000000 0.000000 1.000000
-0.636395 0.636397 1.000000 0.000000 0.000000 1.000000
0.567044 0.693312 1.000000 0.000000 0.000000 1.000000
-0.702727 0.555571 1.000000 0.000000 0.000000 1.000000
0.702728 0.555570 1.000000 0.000000 0.000000 1.000000
0.831470 0.555570 1.000000 0.000000 0.000000 1.000000
0.636396 0.636396 1.000000 0.000000 0.000000 1.000000
-0.923879 0.382684 1.000000 0.000000 0.000000 1.000000
-0.804766 0.394416 1.000000 0.000000 0.000000 1.000000
-0.748322 0.500014 1.000000 0.000000 0.000000 1.000000
0.712356 0.543839 1.000000 0.000000 0.000000 1.000000
-0.811036 0.382684 1.000000 0.000000 0.000000 1.000000
0.811037 0.382683 1.000000 0.000000 0.000000 1.000000
0.923880 0.382683 1.000000 0.000000 0.000000 1.000000
0.748323 0.500013 1.000000 0.000000 0.000000 1.000000
-0.831491 0.344416 1.000000 0.000000 0.000000 1.000000
-0.980785 0.195091 1.000000 0.000000 0.000000 1.000000
-0.873586 0.205650 1.000000 0.000000 0.000000 1.000000
0.816680 0.372125 1.000000 0.000000 0.000000 1.000000
-0.876788 0.195091 1.000000 0.000000 0.000000 1.000000
0.831492 0.344415 1.000000 0.000000 -0.000000 1.000000
0.876789 0.195090 1.000000 0.000000 0.000000 1.000000
0.980785 0.195090 1.000000 0.000000 0.000000 1.000000
-0.882707 0.175582 1.000000 0.000000 0.000000 1.000000
-1.000000 0.000001 1.000000 0.000000 0.000000 1.000000
-0.899020 0.009947 1.000000 0.000000 0.000000 1.000000
0.879806 0.185145 1.000000 0.000000 0.000000 1.000000
-0.900000 0.000001 1.000000 0.000000 0.000000 1.000000
0.882707 0.175581 1.000000 0.000000 -0.000000 1.000000
0.900000 0.000000 1.000000 0.000000 0.000000 1.000000
1.000000 0.000000 1.000000 0.000000 0.000000 1.000000
-0.980785 -0.195089 1.000000 0.000000 0.000000 1.000000
-0.882707 -0.175581 1.000000 0.000000 0.000000 1.000000
-0.900000 0.000001 1.000000 0.000000 0.000000 1.000000
-0.879806 -0.185144 1.000000 0.000000 0.000000 1.000000
0.900000 0.000000 1.000000 -0.000000 0.000000 1.000000
0.899020 -0.009946 1.000000 0.000000 -0.000000 1.000000
-0.876789 -0.195090 1.000000 0.000000 0.000000 1.000000
0.876789 -0.195090 1.000000 0.000000 0.000000 1.000000
0.980785 -0.195090 1.000000 0.000000 0.000000 1.000000
0.882707 -0.175581 1.000000 0.000000 0.000000 1.000000
-0.923880 -0.382683 1.000000 0.000000 0.000000 1.000000
-0.816680 -0.372124 1.000000 0.000000 0.000000 1.000000
-0.831492 -0.344414 1.000000 0.000000 0.000000 1.000000
0.873586 -0.205648 1.000000 0.000000 0.000000 1.000000
-0.811037 -0.382683 1.000000 0.000000 0.000000 1.000000
0.811037 -0.382683 1.000000 0.000000 0.000000 1.000000
0.923880 -0.382683 1.000000 0.000000 0.000000 1.000000
0.831492 -0.344415 1.000000 0.000000 0.000000 1.000000
-0.831470 -0.555570 1.000000 0.000000 0.000000 1.000000
-0.748323 -0.500013 1.000000 0.000000 0.000000 1.000000
-0.712357 -0.543838 1.000000 0.000000 0.000000 1.000000
0.804766 -0.394415 1.000000 0.000000 0.000000 1.000000
-0.702729 -0.555570 1.000000 0.000000 0.000000 1.000000
0.831470 -0.555570 1.000000 -0.000000 0.000000 1.000000
0.748323 -0.500013 1.000000 -0.000000 0.000000 1.000000
0.702728 -0.555570 1.000000 0.000000 -0.000000 1.000000
-0.707107 -0.707106 1.000000 0.000000 0.000000 1.000000
-0.636397 -0.636396 1.000000 0.000000 0.000000 1.000000
-0.567045 -0.693311 1.000000 0.000000 0.000000 1.000000
0.691407 -0.569365 1.000000 0.000000 0.000000 1.000000
-0.550235 -0.707106 1.000000 0.000000 0.000000 1.000000
0.707107 -0.707107 1.000000 -0.000000 0.000000 1.000000
0.636396 -0.636396 1.000000 -0.000000 0.000000 1.000000
0.550235 -0.707107 1.000000 0.000000 -0.000000 1.000000
-0.555571 -0.831469 1.000000 0.000000 0.000000 1.000000
-0.500014 -0.748322 1.000000 0.000000 0.000000 1.000000
-0.377305 -0.813912 1.000000 0.000000 0.000000 1.000000
0.528841 -0.724664 1.000000 0.000000 0.000000 1.000000
-0.344457 -0.831469 1.000000 0.000000 0.000000 1.000000
0.555570 -0.831470 1.000000 -0.000000 0.000000 1.000000
0.500013 -0.748323 1.000000 -0.000000 0.000000 1.000000
0.344456 -0.831470 1.000000 0.000000 -0.000000 1.000000
-0.382684 -0.923879 1.000000 0.000000 0.000000 1.000000
-0.175582 -0.882707 1.000000 0.000000 0.000000 1.000000
-0.344415 -0.831491 1.000000 0.000000 0.000000 1.000000
-0.070116 -0.893094 1.000000 0.000000 0.000000 1.000000
0.344415 -0.831492 1.000000 -0.000000 0.000000 1.000000
0.243002 -0.862255 1.000000 0.000000 -0.000000 1.000000
0.382683 -0.923880 1.000000 -0.000000 0.000000 1.000000
0.175581 -0.882707 1.000000 -0.000000 0.000000 1.000000
-0.000000 -0.900000 1.000000 -0.000000 0.000000 1.000000
-0.195091 -0.980785 1.000000 0.000000 0.000000 1.000000
0.195090 -0.980785 1.000000 0.000000 0.000000 1.000000
-0.000000 -1.000000 1.000000 0.000000 0.000000 1.000000
0.000000 1.000000 -1.000000 -0.098016 0.995185 0.000000
-0.195089 0.980786 -1.000000 -0.098016 0.995185 0.000000
-0.195089 0.980786 1.000000 -0.098016 0.995185 0.000000
0.000000 1.000000 1.000000 -0.098016 0.995185 0.000000
-0.382682 0.923880 1.000000 -0.290283 0.956941 0.000000
-0.195089 0.980786 1.000000 -0.290283 0.956941 0.000000
-0.195089 0.980786 -1.000000 -0.290283 0.956941 0.000000
-0.382682 0.923880 -1.000000 -0.290283 0.956941 0.000000
0.000000 1.000000 -1.000000 0.000000 0.000000 -1.000000
0.195090 0.980785 -1.000000 0.000000 0.000000 -1.000000
-0.195089 0.980786 -1.000000 0.000000 0.000000 -1.000000
-0.382682 0.923880 -1.000000 0.000000 -0.000000 -1.000000
0.382683 0.923880 -1.000000 0.000000 0.000000 -1.000000
0.000000 0.900000 -1.000000 0.000000 0.000000 -1.000000
-0.175580 0.882707 -1.000000 0.000000 0.000000 -1.000000
0.070114 0.893094 -1.000000 0.000000 0.000000 -1.000000
-0.243000 0.862256 -1.000000 0.000000 -0.000000 -1.000000
-0.555569 0.831470 -1.000000 0.000000 -0.000000 -1.000000
-0.344455 0.831470 -1.000000 0.000000 -0.000000 -1.000000
-0.344414 0.831492 -1.000000 0.000000 -0.000000 -1.000000
0.344415 0.831492 -1.000000 0.000000 0.000000 -1.000000
0.175581 0.882707 -1.000000 0.000000 0.000000 -1.000000
0.555570 0.831470 -1.000000 0.000000 0.000000 -1.000000
0.344456 0.831470 -1.000000 0.000000 0.000000 -1.000000
-0.528840 0.724665 -1.000000 0.000000 -0.000000 -1.000000
-0.707106 0.707108 -1.000000 0.000000 -0.000000 -1.000000
-0.500012 0.748323 -1.000000 0.000000 -0.000000 -1.000000
0.377304 0.813912 -1.000000 0.000000 0.000000 -1.000000
-0.550234 0.707108 -1.000000 0.000000 -0.000000 -1.000000
0.707107 0.707107 -1.000000 0.000000 0.000000 -1.000000
0.550235 0.707107 -1.000000 0.000000 0.000000 -1.000000
0.500013 0.748323 -1.000000 0.000000 0.000000 -1.000000
-0.691406 0.569366 -1.000000 0.000000 -0.000000 -1.000000
-0.831469 0.555571 -1.000000 0.000000 -0.000000 -1.000000
-0.636395 0.636397 -1.000000 0.000000 -0.000000 -1.000000
0.567044 0.693312 -1.000000 0.000000 0.000000 -1.000000
-0.702727 0.555571 -1.000000 0.000000 -0.000000 -1.000000
0.831470 0.555570 -1.000000 0.000000 0.000000 -1.000000
0.702728 0.555570 -1.000000 0.000000 0.000000 -1.000000
0.636396 0.636396 -1.000000 0.000000 0.000000 -1.000000
-0.804766 0.394416 -1.000000 0.000000 -0.000000 -1.000000
-0.923879 0.382684 -1.000000 0.000000 -0.000000 -1.000000
-0.748322 0.500014 -1.000000 0.000000 -0.000000 -1.000000
0.712356 0.543839 -1.000000 0.000000 0.000000 -1.000000
-0.811036 0.382684 -1.000000 0.000000 -0.000000 -1.000000
0.923880 0.382683 -1.000000 0.000000 0.000000 -1.000000
0.811037 0.382683 -1.000000 0.000000 0.000000 -1.000000
0.748323 0.500013 -1.000000 0.000000 0.000000 -1.000000
-0.831491 0.344416 -1.000000 0.000000 0.000000 -1.000000
-0.873586 0.205650 -1.000000 0.000000 -0.000000 -1.000000
-0.980785 0.195091 -1.000000 0.000000 -0.000000 -1.000000
0.816680 0.372125 -1.000000 0.000000 0.000000 -1.000000
-0.876788 0.195091 -1.000000 0.000000 -0.000000 -1.000000
0.831492 0.344415 -1.000000 0.000000 0.000000 -1.000000
0.980785 0.195090 -1.000000 0.000000 0.000000 -1.000000
0.876789 0.195090 -1.000000 0.000000 0.000000 -1.000000
-0.882707 0.175582 -1.000000 0.000000 0.000000 -1.000000
-0.899020 0.009947 -1.000000 0.000000 -0.000000 -1.000000
-1.000000 0.000001 -1.000000 0.000000 -0.000000 -1.000000
0.879806 0.185145 -1.000000 0.000000 0.000000 -1.000000
-0.900000 0.000001 -1.000000 0.000000 -0.000000 -1.000000
0.882707 0.175581 -1.000000 0.000000 0.000000 -1.000000
1.000000 0.000000 -1.000000 0.000000 0.000000 -1.000000
0.900000 0.000000 -1.000000 0.000000 0.000000 -1.000000
-0.980785 -0.195089 -1.000000 -0.000000 0.000000 -1.000000
-0.900000 0.000001 -1.000000 -0.000000 0.000000 -1.000000
-0.882707 -0.175581 -1.000000 -0.000000 0.000000 -1.000000
-0.879806 -0.185144 -1.000000 0.000000 0.000000 -1.000000
0.900000 0.000000 -1.000000 0.000000 0.000000 -1.000000
0.899020 -0.009946 -1.000000 0.000000 -0.000000 -1.000000
-0.876789 -0.195090 -1.000000 0.000000 -0.000000 -1.000000
0.980785 -0.195090 -1.000000 0.000000 -0.000000 -1.000000
0.876789 -0.195090 -1.000000 0.000000 -0.000000 -1.000000
0.882707 -0.175581 -1.000000 0.000000 -0.000000 -1.000000
-0.816680 -0.372124 -1.000000 0.000000 -0.000000 -1.000000
-0.923880 -0.382683 -1.000000 0.000000 -0.000000 -1.000000
-0.831492 -0.344414 -1.000000 0.000000 -0.000000 -1.000000
0.873586 -0.205648 -1.000000 0.000000 -0.000000 -1.000000
-0.811037 -0.382683 -1.000000 0.000000 -0.000000 -1.000000
0.923880 -0.382683 -1.000000 0.000000 -0.000000 -1.000000
0.811037 -0.382683 -1.000000 0.000000 -0.000000 -1.000000
0.831492 -0.344415 -1.000000 0.000000 -0.000000 -1.000000
-0.831470 -0.555570 -1.000000 -0.000000 0.000000 -1.000000
-0.748323 -0.500013 -1.000000 -0.000000 0.000000 -1.000000
-0.712357 -0.543838 -1.000000 0.000000 0.000000 -1.000000
0.804766 -0.394415 -1.000000 0.000000 -0.000000 -1.000000
-0.702729 -0.555570 -1.000000 0.000000 -0.000000 -1.000000
0.831470 -0.555570 -1.000000 0.000000 -0.000000 -1.000000
0.748323 -0.500013 -1.000000 0.000000 -0.000000 -1.000000
0.702728 -0.555570 -1.000000 0.000000 -0.000000 -1.000000
-0.707107 -0.707106 -1.000000 -0.000000 0.000000 -1.000000
-0.636397 -0.636396 -1.000000 -0.000000 0.000000 -1.000000
-0.567045 -0.693311 -1.000000 0.000000 0.000000 -1.000000
0.691407 -0.569365 -1.000000 0.000000 -0.000000 -1.000000
-0.550235 -0.707106 -1.000000 0.000000 -0.000000 -1.000000
0.707107 -0.707107 -1.000000 0.000000 -0.000000 -1.000000
0.636396 -0.636396 -1.000000 0.000000 -0.000000 -1.000000
0.550235 -0.707107 -1.000000 0.000000 -0.000000 -1.000000
-0.555571 -0.831469 -1.000000 -0.000000 0.000000 -1.000000
-0.500014 -0.748322 -1.000000 -0.000000 0.000000 -1.000000
-0.377305 -0.813912 -1.000000 0.000000 0.000000 -1.000000
0.528841 -0.724664 -1.000000 0.000000 -0.000000 -1.000000
-0.344457 -0.831469 -1.000000 0.000000 -0.000000 -1.000000
0.555570 -0.831470 -1.000000 0.000000 -0.000000 -1.000000
0.500013 -0.748323 -1.000000 0.000000 -0.000000 -1.000000
0.344456 -0.831470 -1.000000 0.000000 -0.000000 -1.000000
-0.382684 -0.923879 -1.000000 -0.000000 0.000000 -1.000000
-0.344415 -0.831491 -1.000000 -0.000000 0.000000 -1.000000
-0.175582 -0.882707 -1.000000 -0.000000 0.000000 -1.000000
-0.070116 -0.893094 -1.000000 0.000000 0.000000 -1.000000
0.344415 -0.831492 -1.000000 0.000000 -0.000000 -1.000000
0.243002 -0.862255 -1.000000 0.000000 -0.000000 -1.000000
0.382683 -0.923880 -1.000000 0.000000 -0.000000 -1.000000
-0.000000 -0.900000 -1.000000 0.000000 -0.000000 -1.000000
0.175581 -0.882707 -1.000000 0.000000 -0.000000 -1.000000
-0.195091 -0.980785 -1.000000 0.000000 0.000000 -1.000000
0.195090 -0.980785 -1.000000 0.000000 0.000000 -1.000000
-0.000000 -1.000000 -1.000000 0.000000 0.000000 -1.000000
0.000000 0.900000 -1.000000 -0.098017 -0.995185 0.000000
0.070114 0.893094 -1.000000 -0.098017 -0.995185 0.000000
0.070114 0.893094 1.000000 -0.098017 -0.995185 0.000000
0.000000 0.900000 1.000000 -0.098017 -0.995185 0.000000
0.175581 0.882707 -1.000000 -0.098017 -0.995185 0.000000
0.175581 0.882707 1.000000 -0.098017 -0.995185 0.000000
0.344415 0.831492 -1.000000 -0.290284 -0.956940 0.000000
0.344415 0.831492 1.000000 -0.290284 -0.956940 0.000000
0.175581 0.882707 1.000000 -0.290284 -0.956940 0.000000
0.175581 0.882707 -1.000000 -0.290284 -0.956940 0.000000
0.344415 0.831492 -1.000000 -0.471989 -0.881604 0.000000
0.344456 0.831470 -1.000000 -0.471989 -0.881604 0.000000
0.344456 0.831470 1.000000 -0.471989 -0.881604 0.000000
0.344415 0.831492 1.000000 -0.471989 -0.881604 0.000000
0.344456 0.831470 -1.000000 -0.471396 -0.881922 0.000000
0.377304 0.813912 -1.000000 -0.471396 -0.881922 0.000000
0.377304 0.813912 1.000000 -0.471396 -0.881922 0.000000
0.344456 0.831470 1.000000 -0.471396 -0.881922 0.000000
0.500013 0.748323 -1.000000 -0.471397 -0.881921 0.000000
0.500013 0.748323 1.000000 -0.471397 -0.881921 0.000000
0.377304 0.813912 1.000000 -0.471397 -0.881921 0.000000
0.377304 0.813912 -1.000000 -0.471397 -0.881921 0.000000
0.550235 0.707107 -1.000000 -0.634393 -0.773010 -0.000000
0.567044 0.693312 1.000000 -0.634393 -0.773010 -0.000000
0.550235 0.707107 1.000000 -0.634393 -0.773010 -0.000000
0.500013 0.748323 -1.000000 -0.634393 -0.773010 -0.000000
0.567044 0.693312 -1.000000 -0.634393 -0.773010 -0.000000
0.636396 0.636396 1.000000 -0.634393 -0.773010 -0.000000
0.500013 0.748323 1.000000 -0.634393 -0.773010 0.000000
0.567044 0.693312 -1.000000 -0.634394 -0.773010 -0.000000
0.636396 0.636396 -1.000000 -0.634394 -0.773010 -0.000000
0.636396 0.636396 1.000000 -0.634394 -0.773010 -0.000000
0.712356 0.543839 -1.000000 -0.773010 -0.634393 -0.000000
0.748323 0.500013 -1.000000 -0.773010 -0.634393 -0.000000
0.712356 0.543839 1.000000 -0.773010 -0.634393 -0.000000
0.702728 0.555570 1.000000 -0.773010 -0.634393 -0.000000
0.636396 0.636396 1.000000 -0.773010 -0.634393 0.000000
0.702728 0.555570 -1.000000 -0.773010 -0.634393 0.000000
0.748323 0.500013 -1.000000 -0.773011 -0.634393 -0.000000
0.748323 0.500013 1.000000 -0.773011 -0.634393 -0.000000
0.712356 0.543839 1.000000 -0.773011 -0.634393 -0.000000
0.636396 0.636396 1.000000 -0.773011 -0.634393 0.000000
0.636396 0.636396 -1.000000 -0.773011 -0.634393 0.000000
0.702728 0.555570 -1.000000 -0.773011 -0.634393 0.000000
0.816680 0.372125 -1.000000 -0.881921 -0.471397 -0.000000
0.831492 0.344415 -1.000000 -0.881921 -0.471397 -0.000000
0.816680 0.372125 1.000000 -0.881921 -0.471397 -0.000000
0.811037 0.382683 1.000000 -0.881921 -0.471397 -0.000000
0.748323 0.500013 1.000000 -0.881921 -0.471397 0.000000
0.811037 0.382683 -1.000000 -0.881921 -0.471397 0.000000
0.831492 0.344415 -1.000000 -0.881921 -0.471396 -0.000000
0.831492 0.344415 1.000000 -0.881921 -0.471396 -0.000000
0.816680 0.372125 1.000000 -0.881921 -0.471396 -0.000000
0.748323 0.500013 -1.000000 -0.881921 -0.471397 0.000000
0.879806 0.185145 -1.000000 -0.956940 -0.290285 -0.000000
0.882707 0.175581 -1.000000 -0.956940 -0.290285 -0.000000
0.879806 0.185145 1.000000 -0.956940 -0.290285 -0.000000
0.876789 0.195090 1.000000 -0.956940 -0.290285 -0.000000
0.882707 0.175581 -1.000000 -0.956941 -0.290282 -0.000000
0.882707 0.175581 1.000000 -0.956941 -0.290282 -0.000000
0.879806 0.185145 1.000000 -0.956941 -0.290282 -0.000000
0.831492 0.344415 1.000000 -0.956940 -0.290285 0.000000
0.876789 0.195090 -1.000000 -0.956940 -0.290285 0.000000
0.831492 0.344415 1.000000 -0.956940 -0.290284 0.000000
0.831492 0.344415 -1.000000 -0.956940 -0.290284 0.000000
0.876789 0.195090 -1.000000 -0.956940 -0.290284 0.000000
0.900000 0.000000 -1.000000 -0.995185 -0.098017 -0.000000
0.900000 0.000000 -1.000000 -0.995185 -0.098017 -0.000000
0.900000 0.000000 1.000000 -0.995185 -0.098017 -0.000000
0.882707 0.175581 1.000000 -0.995185 -0.098017 -0.000000
0.900000 0.000000 -1.000000 -1.000000 -0.000000 -0.000000
0.900000 0.000000 1.000000 -1.000000 -0.000000 -0.000000
0.900000 0.000000 1.000000 -1.000000 -0.000000 -0.000000
0.882707 0.175581 -1.000000 -0.995185 -0.098017 0.000000
0.900000 0.000000 -1.000000 -0.995185 0.098016 0.000000
0.899020 -0.009946 -1.000000 -0.995185 0.098016 0.000000
0.899020 -0.009946 1.000000 -0.995185 0.098016 0.000000
0.900000 0.000000 1.000000 -0.995185 0.098016 0.000000
0.899020 -0.009946 -1.000000 -0.995185 0.098017 0.000000
0.882707 -0.175581 -1.000000 -0.995185 0.098017 0.000000
0.882707 -0.175581 1.000000 -0.995185 0.098017 0.000000
0.899020 -0.009946 1.000000 -0.995185 0.098017 0.000000
0.882707 -0.175581 -1.000000 -0.956941 0.290284 0.000000
0.876789 -0.195090 -1.000000 -0.956941 0.290284 0.000000
0.876789 -0.195090 1.000000 -0.956941 0.290284 0.000000
0.882707 -0.175581 1.000000 -0.956941 0.290284 0.000000
0.876789 -0.195090 -1.000000 -0.956940 0.290284 0.000000
0.873586 -0.205648 -1.000000 -0.956940 0.290284 0.000000
0.873586 -0.205648 1.000000 -0.956940 0.290284 0.000000
0.876789 -0.195090 1.000000 -0.956940 0.290284 0.000000
0.873586 -0.205648 -1.000000 -0.956940 0.290285 0.000000
0.831492 -0.344415 -1.000000 -0.956940 0.290285 0.000000
0.831492 -0.344415 1.000000 -0.956940 0.290285 0.000000
0.873586 -0.205648 1.000000 -0.956940 0.290285 0.000000
0.811037 -0.382683 -1.000000 -0.881921 0.471397 0.000000
0.804766 -0.394415 1.000000 -0.881921 0.471397 0.000000
0.811037 -0.382683 1.000000 -0.881921 0.471397 0.000000
0.831492 -0.344415 -1.000000 -0.881921 0.471397 0.000000
0.804766 -0.394415 -1.000000 -0.881922 0.471396 0.000000
0.748323 -0.500013 1.000000 -0.881922 0.471396 0.000000
0.804766 -0.394415 1.000000 -0.881922 0.471396 0.000000
0.811037 -0.382683 -1.000000 -0.881922 0.471396 0.000000
0.831492 -0.344415 1.000000 -0.881921 0.471397 0.000000
0.804766 -0.394415 -1.000000 -0.881921 0.471396 0.000000
0.748323 -0.500013 -1.000000 -0.881921 0.471396 0.000000
0.748323 -0.500013 1.000000 -0.881921 0.471396 0.000000
0.702728 -0.555570 -1.000000 -0.773010 0.634394 0.000000
0.691407 -0.569365 1.000000 -0.773010 0.634394 0.000000
0.702728 -0.555570 1.000000 -0.773010 0.634394 0.000000
0.748323 -0.500013 -1.000000 -0.773010 0.634394 0.000000
0.691407 -0.569365 -1.000000 -0.773010 0.634393 0.000000
0.636396 -0.636396 1.000000 -0.773010 0.634393 0.000000
0.691407 -0.569365 1.000000 -0.773010 0.634393 0.000000
0.702728 -0.555570 -1.000000 -0.773010 0.634393 0.000000
0.748323 -0.500013 1.000000 -0.773010 0.634394 0.000000
0.636396 -0.636396 -1.000000 -0.773010 0.634393 0.000000
0.528841 -0.724664 -1.000000 -0.634394 0.773010 0.000000
0.500013 -0.748323 -1.000000 -0.634394 0.773010 0.000000
0.528841 -0.724664 1.000000 -0.634394 0.773010 0.000000
0.550235 -0.707107 1.000000 -0.634394 0.773010 0.000000
0.636396 -0.636396 1.000000 -0.634394 0.773010 0.000000
0.550235 -0.707107 -1.000000 -0.634394 0.773010 0.000000
0.500013 -0.748323 1.000000 -0.634394 0.773010 0.000000
0.636396 -0.636396 -1.000000 -0.634394 0.773010 0.000000
0.344456 -0.831470 -1.000000 -0.471396 0.881921 0.000000
0.344415 -0.831492 -1.000000 -0.471396 0.881921 0.000000
0.344456 -0.831470 1.000000 -0.471396 0.881921 0.000000
0.500013 -0.748323 1.000000 -0.471396 0.881921 0.000000
0.344415 -0.831492 -1.000000 -0.471317 0.881964 0.000000
0.344415 -0.831492 1.000000 -0.471317 0.881964 0.000000
0.344456 -0.831470 1.000000 -0.471317 0.881964 0.000000
0.500013 -0.748323 -1.000000 -0.471396 0.881921 0.000000
0.243002 -0.862255 -1.000000 -0.290285 0.956940 0.000000
0.175581 -0.882707 1.000000 -0.290285 0.956940 0.000000
0.243002 -0.862255 1.000000 -0.290285 0.956940 0.000000
0.344415 -0.831492 -1.000000 -0.290285 0.956940 0.000000
0.175581 -0.882707 -1.000000 -0.290285 0.956940 0.000000
0.344415 -0.831492 1.000000 -0.290285 0.956940 0.000000
-0.000000 -0.900000 -1.000000 -0.098017 0.995185 0.000000
-0.000000 -0.900000 1.000000 -0.098017 0.995185 0.000000
0.175581 -0.882707 1.000000 -0.098017 0.995185 0.000000
0.175581 -0.882707 -1.000000 -0.098017 0.995185 0.000000
-0.000000 -0.900000 -1.000000 0.098018 0.995185 0.000000
-0.070116 -0.893094 -1.000000 0.098018 0.995185 0.000000
-0.070116 -0.893094 1.000000 0.098018 0.995185 0.000000
-0.000000 -0.900000 1.000000 0.098018 0.995185 0.000000
-0.175582 -0.882707 -1.000000 0.098018 0.995185 0.000000
-0.175582 -0.882707 1.000000 0.098018 0.995185 0.000000
-0.344415 -0.831491 -1.000000 0.290285 0.956940 0.000000
-0.344415 -0.831491 1.000000 0.290285 0.956940 0.000000
-0.175582 -0.882707 1.000000 0.290285 0.956940 0.000000
-0.175582 -0.882707 -1.000000 0.290285 0.956940 0.000000
-0.344415 -0.831491 -1.000000 0.471514 0.881859 0.000000
-0.344457 -0.831469 -1.000000 0.471514 0.881859 0.000000
-0.344457 -0.831469 1.000000 0.471514 0.881859 0.000000
-0.344415 -0.831491 1.000000 0.471514 0.881859 0.000000
-0.344457 -0.831469 -1.000000 0.471397 0.881921 0.000000
-0.377305 -0.813912 -1.000000 0.471397 0.881921 0.000000
-0.377305 -0.813912 1.000000 0.471397 0.881921 0.000000
-0.344457 -0.831469 1.000000 0.471397 0.881921 0.000000
-0.500014 -0.748322 -1.000000 0.471397 0.881921 0.000000
-0.500014 -0.748322 1.000000 0.471397 0.881921 0.000000
-0.550235 -0.707106 -1.000000 0.634394 0.773010 0.000000
-0.567045 -0.693311 1.000000 0.634394 0.773010 0.000000
-0.550235 -0.707106 1.000000 0.634394 0.773010 0.000000
-0.500014 -0.748322 -1.000000 0.634394 0.773010 0.000000
-0.567045 -0.693311 -1.000000 0.634394 0.773010 0.000000
-0.636397 -0.636396 1.000000 0.634394 0.773010 0.000000
-0.500014 -0.748322 1.000000 0.634394 0.773010 -0.000000
-0.636397 -0.636396 -1.000000 0.634394 0.773010 0.000000
-0.702729 -0.555570 -1.000000 0.773011 0.634393 0.000000
-0.712357 -0.543838 -1.000000 0.773011 0.634393 0.000000
-0.712357 -0.543838 1.000000 0.773011 0.634393 0.000000
-0.702729 -0.555570 1.000000 0.773011 0.634393 0.000000
-0.748323 -0.500013 -1.000000 0.773011 0.634393 0.000000
-0.748323 -0.500013 1.000000 0.773011 0.634393 0.000000
-0.636397 -0.636396 1.000000 0.773011 0.634393 0.000000
-0.636397 -0.636396 -1.000000 0.773011 0.634393 0.000000
-0.816680 -0.372124 -1.000000 0.881921 0.471397 0.000000
-0.831492 -0.344414 -1.000000 0.881921 0.471397 0.000000
-0.816680 -0.372124 1.000000 0.881921 0.471397 0.000000
-0.811037 -0.382683 1.000000 0.881921 0.471397 0.000000
-0.811037 -0.382683 1.000000 0.881922 0.471396 -0.000000
-0.748323 -0.500013 1.000000 0.881922 0.471396 -0.000000
-0.811037 -0.382683 -1.000000 0.881922 0.471396 -0.000000
-0.816680 -0.372124 -1.000000 0.881922 0.471396 -0.000000
-0.831492 -0.344414 -1.000000 0.881921 0.471396 0.000000
-0.831492 -0.344414 1.000000 0.881921 0.471396 0.000000
-0.816680 -0.372124 1.000000 0.881921 0.471396 0.000000
-0.748323 -0.500013 -1.000000 0.881922 0.471396 -0.000000
-0.879806 -0.185144 -1.000000 0.956941 0.290284 0.000000
-0.882707 -0.175581 -1.000000 0.956941 0.290284 0.000000
-0.879806 -0.185144 1.000000 0.956941 0.290284 0.000000
-0.876789 -0.195090 1.000000 0.956941 0.290284 0.000000
-0.882707 -0.175581 -1.000000 0.956940 0.290284 0.000000
-0.882707 -0.175581 1.000000 0.956940 0.290284 0.000000
-0.879806 -0.185144 1.000000 0.956940 0.290284 0.000000
-0.831492 -0.344414 1.000000 0.956941 0.290284 -0.000000
-0.876789 -0.195090 -1.000000 0.956941 0.290284 -0.000000
-0.831492 -0.344414 -1.000000 0.956941 0.290284 -0.000000
-0.900000 0.000001 -1.000000 0.995185 0.098016 0.000000
-0.900000 0.000001 1.000000 0.995185 0.098016 0.000000
-0.882707 -0.175581 1.000000 0.995185 0.098016 0.000000
-0.882707 -0.175581 -1.000000 0.995185 0.098016 0.000000
-0.900000 0.000001 -1.000000 1.000000 0.000000 0.000000
-0.900000 0.000001 -1.000000 1.000000 0.000000 0.000000
-0.900000 0.000001 1.000000 1.000000 0.000000 0.000000
-0.900000 0.000001 1.000000 1.000000 0.000000 0.000000
-0.900000 0.000001 -1.000000 0.995184 -0.098022 0.000000
-0.899020 0.009947 -1.000000 0.995184 -0.098022 0.000000
-0.899020 0.009947 1.000000 0.995184 -0.098022 0.000000
-0.900000 0.000001 1.000000 0.995184 -0.098022 0.000000
-0.899020 0.009947 -1.000000 0.995185 -0.098018 0.000000
-0.882707 0.175582 -1.000000 0.995185 -0.098018 0.000000
-0.882707 0.175582 1.000000 0.995185 -0.098018 0.000000
-0.899020 0.009947 1.000000 0.995185 -0.098018 0.000000
-0.882707 0.175582 -1.000000 0.956940 -0.290285 0.000000
-0.876788 0.195091 -1.000000 0.956940 -0.290285 0.000000
-0.876788 0.195091 1.000000 0.956940 -0.290285 0.000000
-0.882707 0.175582 1.000000 0.956940 -0.290285 0.000000
-0.876788 0.195091 -1.000000 0.956940 -0.290284 0.000000
-0.873586 0.205650 -1.000000 0.956940 -0.290284 0.000000
-0.873586 0.205650 1.000000 0.956940 -0.290284 0.000000
-0.876788 0.195091 1.000000 0.956940 -0.290284 0.000000
-0.873586 0.205650 -1.000000 0.956940 -0.290286 0.000000
-0.831491 0.344416 -1.000000 0.956940 -0.290286 0.000000
-0.831491 0.344416 1.000000 0.956940 -0.290286 0.000000
-0.873586 0.205650 1.000000 0.956940 -0.290286 0.000000
-0.811036 0.382684 -1.000000 0.881921 -0.471398 0.000000
-0.804766 0.394416 1.000000 0.881921 -0.471398 0.000000
-0.811036 0.382684 1.000000 0.881921 -0.471398 0.000000
-0.831491 0.344416 -1.000000 0.881921 -0.471398 0.000000
-0.804766 0.394416 -1.000000 0.881921 -0.471398 0.000000
-0.748322 0.500014 1.000000 0.881921 -0.471398 0.000000
-0.831491 0.344416 1.000000 0.881921 -0.471398 0.000000
-0.748322 0.500014 -1.000000 0.881921 -0.471398 0.000000
-0.702727 0.555571 -1.000000 0.773010 -0.634394 0.000000
-0.691406 0.569366 1.000000 0.773010 -0.634394 0.000000
-0.702727 0.555571 1.000000 0.773010 -0.634394 0.000000
-0.748322 0.500014 -1.000000 0.773010 -0.634394 0.000000
-0.691406 0.569366 -1.000000 0.773010 -0.634394 0.000000
-0.636395 0.636397 1.000000 0.773010 -0.634394 0.000000
-0.748322 0.500014 1.000000 0.773010 -0.634394 0.000000
-0.636395 0.636397 -1.000000 0.773010 -0.634394 0.000000
-0.528840 0.724665 -1.000000 0.634392 -0.773011 0.000000
-0.500012 0.748323 -1.000000 0.634392 -0.773011 0.000000
-0.528840 0.724665 1.000000 0.634392 -0.773011 0.000000
-0.550234 0.707108 1.000000 0.634392 -0.773011 0.000000
-0.550234 0.707108 1.000000 0.634392 -0.773012 0.000000
-0.636395 0.636397 1.000000 0.634392 -0.773012 0.000000
-0.550234 0.707108 -1.000000 0.634392 -0.773012 0.000000
-0.528840 0.724665 -1.000000 0.634392 -0.773012 0.000000
-0.500012 0.748323 1.000000 0.634392 -0.773011 0.000000
-0.636395 0.636397 -1.000000 0.634392 -0.773012 0.000000
-0.344455 0.831470 -1.000000 0.471396 -0.881922 0.000000
-0.344414 0.831492 -1.000000 0.471396 -0.881922 0.000000
-0.344455 0.831470 1.000000 0.471396 -0.881922 0.000000
-0.500012 0.748323 1.000000 0.471396 -0.881922 0.000000
-0.344414 0.831492 -1.000000 0.470989 -0.882139 0.000000
-0.344414 0.831492 1.000000 0.470989 -0.882139 0.000000
-0.344455 0.831470 1.000000 0.470989 -0.882139 0.000000
-0.500012 0.748323 -1.000000 0.471396 -0.881922 0.000000
-0.175580 0.882707 1.000000 0.098016 -0.995185 0.000000
-0.175580 0.882707 -1.000000 0.098016 -0.995185 0.000000
0.000000 0.900000 -1.000000 0.098016 -0.995185 0.000000
0.000000 0.900000 1.000000 0.098016 -0.995185 0.000000
-0.243000 0.862256 -1.000000 0.290283 -0.956941 0.000000
-0.175580 0.882707 -1.000000 0.290283 -0.956941 0.000000
-0.243000 0.862256 1.000000 0.290283 -0.956941 0.000000
-0.344414 0.831492 1.000000 0.290283 -0.956941 0.000000
-0.175580 0.882707 1.000000 0.290283 -0.956941 0.000000
-0.344414 0.831492 -1.000000 0.290283 -0.956941 0.000000
4 0 1 2 3
4 4 5 6 7
4 8 9 10 11
4 12 13 14 15
4 16 17 18 19
4 20 21 22 23
4 24 25 26 27
4 28 29 30 31
4 32 33 34 35
4 36 37 38 39
4 40 41 42 43
4 44 45 46 47
4 48 49 50 51
4 52 53 54 55
4 56 57 58 59
4 60 61 62 63
4 64 65 66 67
4 68 69 70 71
4 72 73 74 75
4 76 77 78 79
4 80 81 82 83
4 84 85 86 87
4 88 89 90 91
4 92 93 94 95
4 96 97 98 99
4 100 101 102 103
4 104 105 106 107
4 108 109 110 111
4 112 113 114 115
4 116 117 118 119
3 120 121 122
3 120 122 123
3 120 123 124
3 123 125 126
3 126 124 123
3 126 127 124
4 123 128 129 125
3 128 130 131
3 131 129 128
3 124 132 133
3 124 127 132
4 134 135 124 133
4 128 136 137 138
3 138 130 128
3 139 135 134
3 136 140 137
4 141 142 135 143
3 135 139 143
4 136 144 145 146
3 146 140 136
3 147 142 141
3 144 148 145
4 149 150 142 151
3 142 147 151
4 144 152 153 154
3 154 148 144
3 155 150 149
3 152 156 153
4 157 158 150 159
3 150 155 159
3 152 160 156
4 152 161 162 160
3 163 158 157
3 161 164 162
3 158 163 165
4 166 167 158 165
3 161 168 164
4 161 169 170 168
3 171 167 166
3 169 172 170
3 167 171 173
4 174 175 167 173
3 176 177 178
4 172 169 176 178
3 176 179 177
3 175 174 180
3 180 181 175
3 176 182 179
3 183 184 185
4 184 175 181 185
3 186 187 188
4 182 176 186 188
3 189 184 183
3 186 190 187
3 191 192 193
4 192 184 189 193
4 194 195 190 186
3 194 196 195
3 197 192 191
3 194 198 196
4 199 192 197 200
3 200 201 199
4 202 203 198 194
3 202 204 203
3 205 199 201
3 202 206 204
4 207 199 205 208
3 208 209 207
4 210 211 206 202
3 210 212 211
3 213 207 209
3 210 214 212
4 215 207 213 216
3 216 217 215
3 218 219 220
3 218 221 219
4 214 210 218 220
3 215 217 222
3 222 223 215
3 224 225 226
3 226 218 224
3 226 221 218
4 224 215 223 225
3 218 227 224
3 227 228 224
3 227 229 228
4 230 231 232 233
4 234 235 236 237
3 238 239 240
3 239 241 240
3 239 242 241
3 243 244 241
3 241 242 243
3 242 245 243
4 246 247 241 244
3 248 247 249
3 247 246 249
3 242 250 251
3 251 245 242
4 242 252 253 250
4 254 255 247 256
3 247 248 256
3 252 257 253
3 258 255 254
4 252 259 260 261
3 261 257 252
4 262 263 255 264
3 255 258 264
3 259 265 260
3 266 263 262
4 259 267 268 269
3 269 265 259
4 270 271 263 272
3 263 266 272
3 267 273 268
3 274 271 270
4 267 275 276 277
3 277 273 267
3 271 274 278
4 279 280 271 278
3 275 281 276
3 282 280 279
3 275 283 281
4 275 284 285 283
3 280 282 286
4 287 288 280 286
3 284 289 285
3 290 288 287
3 284 291 289
4 284 292 293 291
3 294 295 296
4 294 288 290 295
3 296 297 294
3 292 298 293
3 292 299 298
3 300 294 297
3 301 302 303
4 299 292 301 303
3 304 305 306
4 305 294 300 306
3 301 307 302
3 308 305 304
3 309 310 311
4 307 301 309 311
4 312 305 308 313
3 313 314 312
3 309 315 310
3 316 312 314
4 317 318 315 309
3 317 319 318
4 320 312 316 321
3 321 322 320
3 317 323 319
3 324 320 322
4 325 326 323 317
3 325 327 326
4 328 320 324 329
3 329 330 328
3 325 331 327
3 332 328 330
4 333 334 331 325
3 333 335 334
3 336 337 338
3 338 339 336
4 336 328 332 337
3 333 340 335
3 333 341 340
3 342 343 344
3 342 336 343
3 336 339 343
4 341 333 342 344
3 342 345 336
3 342 346 345
3 346 347 345
4 348 349 350 351
4 349 352 353 350
4 354 355 356 357
4 358 359 360 361
4 362 363 364 365
4 366 367 368 369
4 370 371 372 373
4 374 375 371 370
3 372 376 373
3 377 378 379
4 380 381 382 383
4 383 384 385 380
3 386 387 388
3 389 390 391
4 392 393 394 395
4 395 396 397 392
3 398 399 400
3 396 401 397
4 402 403 404 405
3 406 407 408
4 405 409 410 402
3 411 412 413
4 414 415 416 417
3 418 419 420
3 417 421 414
4 422 423 424 425
4 426 427 428 429
4 430 431 432 433
4 434 435 436 437
4 438 439 440 441
4 442 443 444 445
4 446 447 448 449
3 444 450 445
3 451 452 453
4 454 455 456 457
4 458 459 460 461
3 456 462 457
3 458 463 459
4 464 465 466 467
4 467 468 469 464
3 465 470 466
3 468 471 469
4 472 473 474 475
3 476 477 478
3 475 479 472
4 480 481 482 483
3 480 484 481
3 482 485 483
4 486 487 488 489
4 490 491 492 493
4 491 494 495 492
4 496 497 498 499
4 500 501 502 503
4 504 505 506 507
4 505 508 509 506
4 510 511 512 513
4 514 515 511 510
3 512 516 513
3 514 517 515
4 518 519 520 521
4 522 523 520 519
4 521 524 525 518
4 526 527 528 529
4 530 531 532 533
3 534 535 536
3 531 537 532
4 538 539 540 541
3 542 543 544
4 541 545 546 538
3 545 547 546
4 548 549 550 551
4 552 553 554 555
4 556 557 558 559
4 560 561 562 563
4 564 565 566 567
4 568 569 570 571
4 572 573 574 575
4 576 577 578 579
4 580 581 577 576
3 578 582 579
3 580 583 581
4 584 585 586 587
4 588 589 585 584
3 586 590 587
3 588 591 589
4 592 593 594 595
4 596 597 598 599
3 593 600 594
3 597 601 598
4 602 603 604 605
3 606 607 608
3 605 609 602
4 610 611 612 613
4 614 615 616 617
3 615 618 616
3 617 619 614
